<svg width="100" height="100" xmlns="http://www.w3.org/2000/svg" xmlns:xlink="http://www.w3.org/1999/xlink">
 <!-- Created with SVG-edit - http://svg-edit.googlecode.com/ -->
 <defs>
  <svg id="svg_1" height="916.25" width="720">
   <metadata id="metadata8">image/svg+xml</metadata>
   <g id="g10">
    <g id="g12">
     <path fill="#b3b3b3" fill-rule="nonzero" id="path14" d="m356.25,279.53125l-167.403748,58.912476l26.452499,219.328735l141.128738,77.567505l141.856262,-78.618713l26.443726,-219.320007l-168.477478,-57.869995z"/>
     <path fill="#af2b2d" fill-rule="nonzero" id="path16" d="m508.03125,350.076233l-152.172485,-51.891235l0,318.622498l127.527496,-70.577515l24.644989,-196.153748z"/>
     <path fill="#df2e31" fill-rule="nonzero" id="path18" d="m207.631256,351.013733l22.667511,196.152527l125.558746,69.641235l0,-318.628723l-148.226257,52.834961l0,0z"/>
     <path fill="#f2f2f2" fill-rule="nonzero" id="path20" d="m391.131256,456.662506l-34.994995,-73.079987l-30.807495,73.079987l65.80249,0zm13.342499,30.72876l-92.763733,0l-20.752502,51.907501l-38.602509,0.713745l103.505005,-230.257507l107.112488,230.257507l-35.778748,0l-22.720001,-52.621246z"/>
     <path fill="#b3b3b3" fill-rule="nonzero" id="path22" d="m355.858765,309.755005l0.276245,73.827515l34.958771,73.13623l-35.15625,0l-0.078766,30.625l48.612488,0.047516l22.721252,52.629974l36.936249,0.684998l-108.269989,-230.951233z"/>
    </g>
   </g>
  </svg>
 </defs>
 <g>
  <title>Layer 1</title>
  <use x="23.572438" y="16.549456" transform="matrix(0.2545345535511021,0,0,0.24169979071054987,-46.010746356919356,-62.68247407699164) " id="svg_2" xlink:href="#svg_1"/>
 </g>
</svg>