<?xml version="1.0" encoding="utf-8"?>
<!-- Generator: Adobe Illustrator 17.1.0, SVG Export Plug-In . SVG Version: 6.00 Build 0)  -->
<!DOCTYPE svg PUBLIC "-//W3C//DTD SVG 1.1//EN" "http://www.w3.org/Graphics/SVG/1.1/DTD/svg11.dtd">
<svg version="1.1" id="Layer_1" xmlns="http://www.w3.org/2000/svg" xmlns:xlink="http://www.w3.org/1999/xlink" x="0px" y="0px"
	 viewBox="0 0 72 72" enable-background="new 0 0 72 72" xml:space="preserve">
<path fill="#00ACEE" d="M61,4.6c-9.5,0-16.6,10.1-13.3,17.3C61.2,21.9,55.7,9.4,61,4.6z"/>
<path fill="#FFCC2F" d="M64.1,31.7c0-3.2-15.3-4.8-23.8-5.3C31.9,26,0.8,31.8,4.5,39.6c3.7,7.8,13,16.1,23.5,16.1
	c5.4,0,11.7-3.8,12.1-10.9C46.4,42.7,64.1,42.6,64.1,31.7L64.1,31.7z"/>
<path fill="#2BAF2B" d="M56.3,33.9c1,1-2.1,3.7-4.9,2.4c1.2,2.8-4.2,5.1-6.8,3.1c0.3,2.2-5.1,3.5-6.8,1c0.4,1.2,0.8,2.1,1.2,2.8l0,0
	c0.9,1.2,2.1,2.1,7.4,2.1c8.1,0,21.2-6.2,21.2-10.7c0-3.7-1.4-4.1-3.8-3.8c-2.4,0.3-15.1,1.6-17.7,1.1
	C47.5,32.2,54.8,33.6,56.3,33.9L56.3,33.9z"/>
<path fill="#EF5734" d="M27.9,2.5C12.4,2.5-3.2,17.9,4.2,39.2c5,3,11.7,1.8,13.2,0.2c2.3,0.7,4.3,1,6.1,1c9.4,0,17.5-10,17.5-22.5
	C41,5.1,32.6,2.5,27.9,2.5L27.9,2.5z"/>
<path fill="#FFCC2F" d="M21.5,16.2c0,3.5,2.8,6.3,6.3,6.3c3.5,0,6.3-2.8,6.3-6.3c0-3.5-2.8-6.3-6.3-6.3C24.3,10,21.5,12.8,21.5,16.2
	z"/>
<path fill="#543729" d="M24,16.2c0,2.1,1.7,3.8,3.8,3.8s3.8-1.7,3.8-3.8c0-2.1-1.7-3.8-3.8-3.8C25.7,12.5,24,14.2,24,16.2z"/>
<ellipse fill="#FFFFFF" cx="27.8" cy="14.6" rx="2.2" ry="1.4"/>
<path fill="#CECECE" d="M40.6,13c-2.8,1.7-2.8,7-1.5,9.6c2.5-0.9,5.9-2.7,6.4-3c0.5-0.3-0.3-1.5,1.8-1.5c2.9,0,5.4,0.9,6.2,1.2
	C53,18.3,47.2,13,40.6,13z"/>
<path fill="#543729" d="M70.6,35.3c-3.7-3.6-22.2-5.8-28-6.4c0.3-0.7,0.5-1.4,0.7-2.1c0.8-0.3,1.7-0.7,2.5-0.9
	c0.1,0.3,0.6,1.5,0.9,2.1c11.7,0.3,12.3-8.7,12.8-11.2C60,14.3,60,12,64,7.7c-6-1.7-14.6,2.7-17.5,9.3c-1.1-0.4-2.2-0.7-3.2-0.9
	c-0.8-3.1-4.8-11.8-15.3-11.8c-6.8,0-13.7,2.8-18.9,7.7c-2.8,2.6-5,5.8-6.5,9.3C0.9,25.3,0,29.5,0,34c0,15.7,10.7,29.4,16.7,29.4
	c2.6,0,4.9-2,5.4-3.7c0.4,1.2,1.8,5,2.3,5.9c0.7,1.4,3.7,2.7,5.1,1.2c1.7,1,4.9,1.5,6.6-1c3.3,0.7,6.3-1.3,6.3-3.7
	c1.6-0.1,2.4-2.4,2.1-4.2c-0.3-1.3-3.1-6.2-4.2-7.8c2.2,1.8,7.7,2.3,8.3,0c3.5,2.7,9,1.3,9.4-0.9c4.3,1.1,9.1-1.3,8.3-4.3
	C73.4,44.4,72.5,37.1,70.6,35.3L70.6,35.3z M52.8,23.2c-1.8-0.7-4.1-1.2-5.7-1.2c-2.3,0-3.7,1.3-5.8,1.3c-0.4,0-1.5,0-2.4-0.3
	c0.6,0.6,1.3,0.9,2.6,0.9c0.8,0,2.4-0.4,3.7-0.8c0,0.3,0,0.5,0.1,0.8c-2.4,0.6-5,2.1-5.8,2.5c-1.7-3.6-0.2-7.1,1.1-8.7
	C46.6,17.8,51.3,21.9,52.8,23.2z M55.3,22.9l-0.9-0.8c-0.9-0.9-1.9-1.6-2.9-2.3c1.5-2.9,3.3-6.1,5.7-8.1c-2.6,1-5.1,4.1-6.6,7.4
	c-0.8-0.5-1.5-0.9-2.3-1.3c2.1-4.5,7-8.2,12.3-8.5C57,12.6,58.3,19.1,55.3,22.9z M47.9,26c-0.4-0.9-0.8-2.3-0.7-3.1
	c0.7,0,1.9,0.2,2.2,0.3c-0.1,0.4-0.1,1.3-0.1,1.4c0.1-0.2,0.5-1,0.6-1.3c1.3,0.2,3,0.7,4,1.1C52.6,25.1,50.7,25.9,47.9,26z
	 M39.9,15.9c-4.7,4.8-2.8,10.8-1.1,13.5c-2.4,4-7.2,6.8-12.7,8.1c6.2,0,9.9-1.6,12-3.2c1.4-1,2.1-2,2.5-2.5
	c9.2,0.6,23.8,3.6,25.3,4.5c0.6,0.4,1.2,1.2,1.2,2.1c-6.9-1-19.4-2-22.7-2.2c2.3,0.3,19.3,3.5,22.2,4.3c-0.9,1.5-2.9,2.5-6,1.8
	c1.7,2.3-1.6,5-6,3.5c1,2.2-3,4.2-7.5,1.9c0.1,2.2-5.6,2.5-7.9,0c0,0.3,0.3,0.9,0.4,1.1c-0.7,6.5-6,10.5-11.5,10.5
	C14.7,59.2,3.1,48.4,3.1,34c0-15.2,11.2-26.6,24.8-26.6C35.7,7.5,39.2,13.6,39.9,15.9L39.9,15.9z"/>
</svg>
