<?xml version="1.0" encoding="utf-8"?>
<!-- Generator: Adobe Illustrator 17.1.0, SVG Export Plug-In . SVG Version: 6.00 Build 0)  -->
<!DOCTYPE svg PUBLIC "-//W3C//DTD SVG 1.1//EN" "http://www.w3.org/Graphics/SVG/1.1/DTD/svg11.dtd">
<svg version="1.1" id="Layer_1" xmlns="http://www.w3.org/2000/svg" xmlns:xlink="http://www.w3.org/1999/xlink" x="0px" y="0px"
	 viewBox="0 0 72 72" enable-background="new 0 0 72 72" xml:space="preserve">
<g>
	<path id="Shape_1_" fill="#1572B6" d="M10,64.8L4.3,0h63.5L62,64.8L36,72L10,64.8z"/>
	<path id="Shape_2_" fill="#33A9DC" d="M36,66.5l21-5.8L62,5.3H36V66.5z"/>
	<g id="Group" transform="translate(55.000000, 142.000000)">
		<path id="Shape_3_" fill="#FFFFFF" d="M-19-113.2h10.5l0.7-8.1H-19v-8l0,0H0.9l-0.2,2.1l-2,21.9H-19L-19-113.2L-19-113.2z"/>
		<path id="Shape_4_" fill="#EBEBEB" d="M-18.9-92.6L-18.9-92.6l-8.9-2.4l-0.6-6.3h-4.2h-3.7l1.1,12.5l16.2,4.5h0
			C-18.9-84.3-18.9-92.6-18.9-92.6z"/>
		<path id="Shape_5_" fill="#FFFFFF" d="M-9.1-105.6l-1,10.7l-8.9,2.4v8.3l16.3-4.5l0.1-1.3l1.4-15.5L-9.1-105.6L-9.1-105.6z"/>
		<path id="Shape_6_" fill="#EBEBEB" d="M-19-129.3v4.9v3l0,0h-19.2l0,0l-0.2-1.8l-0.4-4l-0.2-2.2H-19z"/>
		<path id="Shape_7_" fill="#EBEBEB" d="M-19-113.2v4.9v3l0,0h-8.7l0,0l-0.1-1.8l-0.4-4l-0.2-2.1H-19L-19-113.2z"/>
	</g>
</g>
</svg>
