<svg width="150" height="110" xmlns="http://www.w3.org/2000/svg" xmlns:xlink="http://www.w3.org/1999/xlink">
 <g>
  <title>Layer 1</title>
  <g id="Sencha_Logo_Text">
   <g id="svg_35">
    <g id="svg_36">
     <defs transform="translate(317,-27) ">
      <rect height="100" width="172.574" y="27.4" x="20.183" id="SVGID_1_"/>
     </defs>
     <clipPath transform="translate(317,-27) " id="SVGID_2_">
      <use x="317" y="-27" id="svg_37" xlink:href="#SVGID_1_"/>
     </clipPath>
     <path id="svg_38" clip-path="url(#SVGID_2_)" d="m406.375,28.741001c-0.264008,-0.485001 -0.619995,-0.913002 -1.063019,-1.191002c-0.441986,-0.278 -0.940979,-0.499001 -1.511993,-0.612999c-0.570984,-0.113998 -1.190979,-0.185001 -1.860992,-0.185001c-0.441986,0 -0.884003,0.042999 -1.319,0.136002c-0.441986,0.092999 -0.84201,0.25 -1.197998,0.485001c-0.364014,0.235001 -0.656006,0.521 -0.884003,0.869999c-0.227997,0.348999 -0.348999,0.792 -0.348999,1.319c0,0.485001 0.092987,0.883999 0.278015,1.183998c0.184998,0.300003 0.548981,0.578003 1.097992,0.834003c0.541992,0.257 1.298004,0.505997 2.260986,0.762997c0.963013,0.257 2.218018,0.578003 3.77301,0.970001c0.463989,0.092999 1.105011,0.264 1.932983,0.506001c0.820007,0.242001 1.640015,0.634998 2.453003,1.161999c0.813019,0.535 1.512024,1.248001 2.104004,2.140003c0.59201,0.890999 0.884003,2.032997 0.884003,3.422997c0,1.134003 -0.221008,2.189003 -0.662994,3.166c-0.442017,0.970001 -1.097992,1.811005 -1.967987,2.517998c-0.869995,0.706001 -1.947021,1.255005 -3.231018,1.655006c-1.283997,0.391998 -2.773987,0.591995 -4.471985,0.591995c-1.369019,0 -2.696014,-0.170998 -3.980011,-0.505997c-1.283997,-0.334999 -2.424988,-0.862999 -3.408997,-1.583c-0.984009,-0.720001 -1.768982,-1.590004 -2.346008,-2.703003c-0.584991,-1.112999 -0.862976,-2.909996 -0.833984,-3.915001h5.285004c0,1.013 0.149994,1.498001 0.449005,2.075005c0.299988,0.577995 0.698975,1.027 1.197968,1.383995c0.499023,0.357002 1.084015,0.612999 1.753998,0.792c0.670013,0.171005 1.369019,0.257004 2.090027,0.257004c0.484985,0 1.013,-0.042999 1.561981,-0.121002c0.556,-0.077995 1.076996,-0.235001 1.562012,-0.471001c0.485016,-0.235001 0.890991,-0.548996 1.220001,-0.956001c0.320984,-0.406998 0.484985,-0.919998 0.484985,-1.547997c0,-0.669998 -0.213989,-1.220001 -0.641998,-1.633003c-0.427979,-0.420998 -0.990997,-0.763 -1.690002,-1.041c-0.691986,-0.278 -1.483002,-0.520996 -2.367981,-0.726997c-0.884003,-0.207001 -1.776001,-0.442001 -2.674011,-0.692001c-0.927002,-0.234997 -1.833008,-0.512997 -2.709991,-0.855999c-0.884003,-0.334999 -1.669006,-0.77 -2.368011,-1.305c-0.691986,-0.535 -1.254974,-1.197998 -1.682983,-1.996998c-0.428009,-0.799 -0.641998,-1.769001 -0.641998,-2.903c0,-1.277 0.270996,-2.382 0.820007,-3.323002c0.541992,-0.940998 1.254974,-1.718998 2.139984,-2.346001c0.884003,-0.627998 1.876007,-1.091 2.988007,-1.390999c1.113007,-0.299999 2.225006,-0.449001 3.337982,-0.449001c1.298004,0 2.546021,0.143002 3.737,0.435001c1.198029,0.292 2.253998,0.763 3.181,1.411999c0.927002,0.649002 1.662018,1.569 2.210999,2.582001c0.542023,1.006001 0.813019,1.740002 0.813019,3.757999h-5.285004c-0.045013,-1.035 -0.201996,-1.477997 -0.466003,-1.962997m25.674011,11.019001h-12.766022c0.071014,2.017998 0.477997,2.937996 1.220001,3.658997c0.742004,0.720001 1.811005,1.169998 3.202026,1.169998c0.997986,0 1.853973,0.014 2.574982,-0.485001c0.720001,-0.498993 1.154999,-1.318993 1.319,-1.318993h4.343018c-0.699005,2.017998 -1.762024,3.479996 -3.195007,4.406998c-1.44101,0.927002 -3.174011,1.283997 -5.213013,1.283997c-1.411987,0 -2.688995,-0.278 -3.822998,-0.735001c-1.134003,-0.448997 -2.096985,-1.119995 -2.888,-1.953995c-0.791992,-0.834 -1.39798,-1.847 -1.825989,-3.001999c-0.428009,-1.155006 -0.641998,-2.439003 -0.641998,-3.830002c0,-1.341003 0.220978,-2.596001 0.662994,-3.758003c0.441986,-1.154999 1.070007,-2.160999 1.875977,-3.009998c0.813019,-0.848999 1.776001,-1.512001 2.903015,-2.004002c1.127014,-0.484997 2.368011,-0.726997 3.737,-0.726997c1.53299,0 2.859985,0.292 4.001007,0.883999c1.134003,0.591999 2.067993,1.383999 2.803009,2.382c0.72699,0.998001 1.255005,1.953999 1.582977,3.223999c0.321014,1.277 0.442017,2.809998 0.348999,3.815002m-6.189972,-5.749001c-0.59201,-0.649002 -1.491028,-0.906002 -2.696014,-0.906002c-0.783997,0 -1.44101,0.164001 -1.960999,0.435001c-0.520996,0.264 -0.94101,0.612999 -1.255005,1.006001c-0.313995,0.391998 -0.535004,0.691998 -0.662994,1.126999c-0.127991,0.442001 -0.207001,1.063 -0.227997,1.063h8.029999c-0.221008,-1.014 -0.627991,-2.076 -1.22699,-2.724998m20.096985,13.820999v-10.077003c0,-1.482998 -0.078003,-2.588997 -0.542023,-3.322998c-0.463959,-0.726997 -1.211975,-1.098 -2.388977,-1.098c-1.341003,0 -2.475006,0.399002 -3.074005,1.198002c-0.605988,0.799 -1.054993,2.111 -1.054993,3.943996v9.343002h-5.049011v-18.166h5.049011v3.031002h0.242004c0.627991,-1.013 1.432983,-1.933002 2.431976,-2.403c0.998016,-0.478001 2.018005,-0.777 3.059998,-0.777c1.319031,0 2.403015,0.149998 3.252014,0.506001c0.848999,0.356998 1.512024,0.841999 1.997009,1.475998c0.485016,0.642002 0.72699,1.404999 0.926971,2.325001c0.200012,0.912998 0.193024,1.925999 0.193024,3.037998v10.975998h-5.041992v0.007004l-0.001007,0zm16.096985,-14.427002c-0.791992,0 -1.447998,0.064003 -1.982971,0.421001c-0.535034,0.356998 -0.970032,0.763 -1.305023,1.334c-0.334991,0.570999 -0.578003,1.162003 -0.712982,1.847004c-0.143005,0.684998 -0.207001,1.348 -0.207001,2.017998c0,0.649002 0.070984,1.305 0.207001,1.974998c0.143005,0.669998 0.363983,1.277 0.677979,1.826004c0.314026,0.542 0.735016,0.990997 1.269012,1.334c0.535004,0.348999 1.18399,0.520996 1.946991,0.520996c1.184021,0 2.090027,-0.463997 2.731018,-1.120003c0.63501,-0.662994 1.033997,-1.782997 1.197998,-2.788994h4.763977c-0.328003,3.030998 -1.247986,4.335999 -2.780975,5.590996c-1.53299,1.255005 -3.48703,1.940002 -5.877014,1.940002c-1.341003,0 -2.582001,-0.193001 -3.700989,-0.649002c-1.127014,-0.448997 -2.082001,-1.07 -2.867004,-1.875999c-0.792023,-0.812996 -1.404999,-1.768997 -1.847015,-2.894997s-0.662994,-2.353004 -0.662994,-3.701004c0,-1.390999 0.200012,-2.681999 0.605988,-3.872997c0.406006,-1.191002 1.006012,-2.225002 1.790009,-3.095001c0.785004,-0.869999 1.747009,-1.548 2.888,-2.033001c1.134003,-0.485001 2.432007,-0.726997 3.894012,-0.726997c1.062988,0 2.089996,0.142998 3.074005,0.420998c0.983978,0.278 1.868988,0.699001 2.645996,1.269001c0.776978,0.570999 1.412018,1.512001 1.897003,2.353001c0.484985,0.848999 0.763,1.226997 0.833984,3.244999h-4.834991c-0.313995,-3.037998 -1.53299,-3.337002 -3.644012,-3.337002m22.257996,14.427002v-10.077003c0,-1.482998 0,-2.588997 -0.463989,-3.322998c-0.463989,-0.726997 -1.169983,-1.098 -2.352997,-1.098c-1.341003,0 -2.024994,0.399002 -2.623993,1.198002c-0.606018,0.799 -0.606018,2.118 -0.606018,3.943996v9.343002h-5.048981v-25.218998h5.048981v10.091h-0.377991c0.627991,-1.013 1.426025,-1.933002 2.402985,-2.403c0.97702,-0.478001 1.926025,-0.777 2.853027,-0.777c1.319,0 2.402985,0.149998 3.252014,0.506001c0.848969,0.356998 1.511993,0.841999 1.996979,1.475998c0.484985,0.642002 0.648987,1.404999 0.848999,2.325001c0.193024,0.912998 0.121002,1.925999 0.121002,3.037998v10.976002h-5.050018l0,0zm20.282013,0c-0.093018,0 -0.17099,-0.521004 -0.227997,-0.813004s-0.100006,-0.562996 -0.121002,-0.869995c-0.791992,0.812996 -1.718994,1.390999 -2.780975,1.711998c-1.070007,0.320999 -2.154022,0.491997 -3.266022,0.491997c-0.855988,0 -1.662018,-0.099998 -2.402985,-0.306999c-0.742004,-0.207001 -1.391022,-0.534996 -1.947021,-0.969994c-0.556,-0.442001 -0.990997,-0.998001 -1.304993,-1.669006c-0.313995,-0.669998 -0.471008,-1.468994 -0.471008,-2.403c0,-1.019997 0.178009,-1.861 0.535004,-2.517998c0.357025,-0.663002 0.820007,-1.191002 1.391022,-1.583s1.219971,-0.692001 1.94696,-0.884003c0.735016,-0.199997 1.469025,-0.356995 2.211029,-0.470993s1.468994,-0.207001 2.188995,-0.278c0.720001,-0.071007 1.35498,-0.171005 1.911011,-0.314003c0.555969,-0.143002 0.997986,-0.341999 1.31897,-0.605999c0.321014,-0.264 0.478027,-0.656002 0.449005,-1.162003c0,-0.535 -0.085968,-0.955997 -0.264008,-1.269001c-0.170959,-0.313999 -0.405975,-0.556 -0.691986,-0.726997c-0.291992,-0.171001 -0.627991,-0.292 -1.006012,-0.348999c-0.384979,-0.057003 -0.791992,-0.086002 -1.233978,-0.086002c-0.97699,0 -1.740021,0.334999 -2.296021,0.756001c-0.556,0.421001 -0.876984,1.205002 -0.970001,2.217999h-4.934967c0.070984,-1.012997 0.356964,-2.253998 0.869965,-3.016998c0.513,-0.763 1.162018,-1.448002 1.947021,-1.903999c0.785004,-0.464001 1.675995,-0.827 2.660004,-1.02c0.983978,-0.200001 1.975006,-0.313999 2.973999,-0.313999c0.905975,0 1.819,0.056999 2.746002,0.184998c0.927002,0.128002 1.768982,0.371002 2.538971,0.742001c0.763031,0.371002 1.170013,0.883999 1.655029,1.548c0.484985,0.663002 0.506012,1.533001 0.506012,2.624001v9.356998c0,0.813004 0.270996,1.548004 0.363983,2.289001c0.092987,0.741997 0.477997,1.633003 0.705994,1.633003h-4.998993v-0.022003l-0.001007,0zm-0.098999,-8.715004c-1.013,0.185005 -0.699005,0.328003 -1.013,0.435005s-0.763,0.193001 -1.126984,0.264c-0.356995,0.070999 -0.791992,0.127998 -1.184021,0.170998c-0.391998,0.042999 -0.820007,0.107002 -1.211975,0.170998c-0.371033,0.071007 -0.749023,0.164001 -1.113007,0.278c-0.357025,0.114006 -0.678009,0.271004 -0.94101,0.471001c-0.264008,0.200005 -0.485016,0.449005 -0.648987,0.749001c-0.164032,0.300003 -0.242004,0.685005 -0.242004,1.148003c0,0.442001 0.077972,0.812996 0.242004,1.112999s0.384979,0.542 0.662994,0.712997c0.277985,0.171005 0.598999,0.292 0.97699,0.364006c0.371002,0.070999 0.755981,0.106995 1.14801,0.106995c0.97699,0 1.726013,-0.163994 2.260986,-0.485001c0.535004,-0.327995 0.927002,-0.712997 1.18399,-1.161995c0.257019,-0.449005 0.642029,-0.913002 0.699005,-1.375999c0.057007,-0.464005 0.313995,-0.834 0.313995,-1.112999l-0.006989,-1.848007l0,0z"/>
    </g>
   </g>
  </g>
  <g id="Sencha_Logo_Artwork">
   <g id="svg_39">
    <g id="svg_40">
     <linearGradient gradientTransform="matrix(0 -1 -1 0 -4518.8652 10363.0068)" y2="-66.508472" x2="224.955118" y1="-65.872037" x1="225.922901" id="bottom_1_">
      <stop stop-color="#C5D82D" offset="0"/>
      <stop stop-color="#C2D62D" offset="0.1897"/>
      <stop stop-color="#B8CF2C" offset="0.3354"/>
      <stop stop-color="#A8C42B" offset="0.4665"/>
      <stop stop-color="#91B42A" offset="0.5891"/>
      <stop stop-color="#739F28" offset="0.7057"/>
      <stop stop-color="#4E8625" offset="0.8177"/>
      <stop stop-color="#236822" offset="0.9242"/>
      <stop stop-color="#005020" offset="1"/>
     </linearGradient>
     <path fill="url(#bottom_1_)" d="m48,79.800003c3.299999,1.599998 5.599998,5 5.599998,8.899994c0,3.800003 -2.099998,7.100006 -5.299999,8.470001l4.700001,-2.169998c7.700001,-3.800003 12.900002,-11.699997 12.900002,-20.800003c0,-9 -5.100002,-16.799995 -12.600002,-20.969997l-15.200001,-7.599998c-3.299999,-1.600002 -5.599998,-5 -5.599998,-8.900002c0,-3.799999 2,-7.199999 5.099998,-8.9l-4.599998,2.27c-7.700001,3.800001 -12.700001,12.300001 -12.700001,21.4c0,9 5.1,16.800003 12.600002,20.699997l15.099998,7.600006z" id="bottom"/>
     <defs>
      <path d="m49.437,96.442001c-0.341999,0.241997 -0.699001,0.463997 -1.077,0.663002l2.987999,-1.526001l-0.391998,-0.456001c-0.463001,0.485001 -0.970001,0.927002 -1.519001,1.319m4.050999,-7.987l0,0l0,0zm0,-0.014999l0,0l0,0zm0,-0.014l0,0l0,0zm0,-0.014l0,0l0,0zm0,-0.014l0,0l0,0zm0,-0.022003l0,0l0,0zm0,-0.006996l0,0l0,0z" id="SVGID_3_"/>
     </defs>
     <clipPath id="SVGID_4_">
      <use id="svg_41" xlink:href="#SVGID_3_"/>
     </clipPath>
     <linearGradient gradientTransform="matrix(23.259 23.259 -23.259 23.259 -2536.4351 27419.375)" y2="-52.030742" x2="-41.08193" y1="-52.030742" x1="-41.216497" id="SVGID_5_">
      <stop stop-color="#C0D32E" offset="0"/>
      <stop stop-color="#BDD12E" offset="0.2546"/>
      <stop stop-color="#B5CB2E" offset="0.4064"/>
      <stop stop-color="#A7C12D" offset="0.5312"/>
      <stop stop-color="#93B22D" offset="0.6415"/>
      <stop stop-color="#78A02C" offset="0.742"/>
      <stop stop-color="#58882B" offset="0.8356"/>
      <stop stop-color="#336D29" offset="0.922"/>
      <stop stop-color="#0A5028" offset="1"/>
     </linearGradient>
     <polygon id="svg_42" clip-path="url(#SVGID_4_)" fill="url(#SVGID_5_)" points="43.989,92.734 50.992,99.737 58.002,92.734      50.992,85.73    "/>
    </g>
   </g>
   <g id="svg_43">
    <g id="svg_44">
     <defs>
      <path d="m49.437,96.442001c-0.341999,0.241997 -0.699001,0.463997 -1.077,0.663002l2.987999,-1.526001l-0.391998,-0.456001c-0.463001,0.485001 -0.970001,0.927002 -1.519001,1.319m4.050999,-7.987l0,0l0,0zm0,-0.014999l0,0l0,0zm0,-0.014l0,0l0,0zm0,-0.014l0,0l0,0zm0,-0.014l0,0l0,0zm0,-0.022003l0,0l0,0zm0,-0.006996l0,0l0,0z" id="SVGID_6_"/>
     </defs>
     <clipPath id="SVGID_7_">
      <use id="svg_45" xlink:href="#SVGID_6_"/>
     </clipPath>
     <linearGradient gradientTransform="matrix(0.1026 0.1023 -0.1034 0.1037 10.0132 4.9941)" y2="10.069342" x2="44.003858" y1="10.851518" x1="1.019712" id="SVGID_8_">
      <stop stop-color="#C0D32E" offset="0"/>
      <stop stop-color="#BED12E" offset="0.3228"/>
      <stop stop-color="#B6CC2E" offset="0.4727"/>
      <stop stop-color="#AAC32D" offset="0.5869"/>
      <stop stop-color="#97B62D" offset="0.683"/>
      <stop stop-color="#80A52C" offset="0.7678"/>
      <stop stop-color="#62902B" offset="0.8445"/>
      <stop stop-color="#3F772A" offset="0.9152"/>
      <stop stop-color="#185A28" offset="0.9794"/>
      <stop stop-color="#0A5028" offset="1"/>
     </linearGradient>
     <polygon id="svg_46" clip-path="url(#SVGID_7_)" fill="url(#SVGID_8_)" points="50.963,99.701 44.024,92.777 51.02,85.759 57.96,92.684         "/>
    </g>
   </g>
  </g>
  <g id="svg_47">
   <g id="svg_48">
    <g id="svg_49">
     <defs>
      <path d="m36.014999,73.400002l0,0l0,0m-3.23,-1.619003l-0.007,-0.006996c-0.000999,0.006996 0.007,0.006996 0.007,0.006996m-0.085999,-0.042999c-0.007,0 -0.007,-0.006996 -0.014,-0.006996c0.007,0 0.007,0 0.014,0.006996m-0.050003,-0.028999l0,0l0,0m-0.014,-0.006996c0,0 -0.007,-0.007004 -0.014,-0.007004c0.007,0.007004 0.014,0.007004 0.014,0.007004m-0.014,-0.007004c-0.007,0 -0.007,-0.006996 -0.014,-0.006996c-0.000999,0 0.006001,0.006996 0.014,0.006996m-0.014999,-0.006996l0,0l0,0m-0.007,0l0,0c0.007,0 0.007,0 0,0l0,0zm5.427002,-26.209003c-0.007,0 -0.007,-0.007 -0.014,-0.007c0.007,0 0.014,0 0.014,0.007m-0.007,-0.007l0,0l0,0m0,0l0,0l0,0l0,0m-0.007,-0.007l0,0l0,0m0,0c-0.021,-0.014 -0.042999,-0.021 -0.063999,-0.028999c0.021,0.007 0.042999,0.021 0.063999,0.028999m-0.063999,-0.028999c-0.057003,-0.028999 -0.114002,-0.056999 -0.171001,-0.093002c0.056999,0.029003 0.113998,0.064003 0.171001,0.093002m-0.171001,-0.093002c-0.007,0 -0.007,-0.007 -0.014,-0.007c0.007,0.007 0.007,0.007 0.014,0.007m-0.014,-0.007c-0.007,-0.007 -0.021,-0.007 -0.028999,-0.014c0.014,0.007 0.021,0.014 0.028999,0.014m-0.028999,-0.014c-0.007,0 -0.007,-0.007 -0.014,-0.007c0.007,0.007 0.014,0.007 0.014,0.007m-0.014,-0.007c-0.007,-0.007 -0.014,-0.007 -0.021,-0.014c0.007,0.007 0.014,0.007 0.021,0.014m-0.021999,-0.014c-0.007,0 -0.007,-0.007 -0.014004,-0.007c0.007004,-0.000999 0.007004,0.007 0.014004,0.007m-0.014004,-0.007999c-0.006996,-0.007 -0.021,-0.007 -0.028999,-0.014c0.007999,0.007 0.022003,0.007 0.028999,0.014m-0.028,-0.014c0,0 -0.007,0 -0.007,-0.007c-0.000999,0.007 0.007,0.007 0.007,0.007m-0.007999,-0.007c-0.092999,-0.049999 -0.177998,-0.099998 -0.264,-0.156998c0.086002,0.056999 0.172001,0.113998 0.264,0.156998m-0.271,-0.156998c0,0 -0.007,0 0,0c-0.007,0 0,0 0,0m-0.021,-0.007l0,0l0,0m-4.392998,-15.302002c-7.659,3.823002 -12.780001,12.164001 -12.780001,21.306999v0.070999c0,1.341003 0.164,2.660004 0.385,3.944c1.126999,0.335003 2.324999,0.535 3.552,0.592003c0.227999,0.007 0.470999,0.014 0.691999,0.014c2.368,0 4.621,-0.563 6.618,-1.576c0.306999,-4.028999 1.098,-8.080002 2.674,-12.024002c-1.048,-1.562 -1.811001,-3.438 -1.811001,-5.455997l0,0v-0.007l0,0v-0.007v-0.007v-0.007v-0.007v-0.007v-0.007v-0.014c0,-3.794003 2.246002,-7.089003 5.384003,-8.758001l-4.714001,1.948999z" id="SVGID_9_"/>
     </defs>
     <clipPath id="SVGID_10_">
      <use id="svg_50" xlink:href="#SVGID_9_"/>
     </clipPath>
     <linearGradient gradientTransform="matrix(23.259 23.259 -23.259 23.259 -2530.5378 27413.4785)" y2="-8.278772" x2="-6.629417" y1="-8.278772" x1="-6.653183" id="SVGID_11_">
      <stop stop-color=" hsl(66, 66%, 50%)" offset="0.2546"/>
     </linearGradient>
     <polygon id="svg_51" clip-path="url(#SVGID_10_)" fill="url(#SVGID_11_)" points="-5.728,53.21 33.939,92.884 73.612,53.21      33.939,13.544    "/>
    </g>
   </g>
  </g>
  <g id="svg_52">
   <g id="svg_53">
    <g id="svg_54">
     <defs>
      <path d="m36.014999,73.400002l0,0l-1.618999,-0.806l1.618999,0.806zm-1.618999,-0.806l-0.106998,-0.056999l0.106998,0.056999zm-9.57,-16.867001c-0.228001,0 -0.455999,-0.007 -0.684999,-0.014c-1.227001,-0.057003 -2.446001,-0.257 -3.573,-0.585003c0.077999,0.435001 0.133999,0.764 0.233,1.192001l0.064999,0.271999c0.1,0.421001 0.157001,0.638 0.286001,1.052002l0.142,0.461998c0.233,0.792999 0.382,1.150002 0.755999,2.034l0.275002,0.622002c0.063,0.139 0.174,0.375999 0.304998,0.634998l0.321001,0.621002c0.378,0.755997 0.618,1.091999 1.074999,1.790997l0.064001,0.100002c0.221001,0.335003 0.455999,0.670002 0.691999,0.991001l0.1,0.136002c0.242001,0.327995 0.492001,0.648994 0.756001,0.962997l0.042999,0.050003c0.257,0.306999 0.528,0.612999 0.799,0.905998l0.071001,0.077995c0.271,0.292 0.556,0.570999 0.841999,0.849007l0.143,0.134995c0.285,0.271004 0.578001,0.535004 0.877001,0.792l0.114,0.093002c0.299999,0.256996 0.605999,0.499001 0.92,0.741997l0.056999,0.042999c0.314001,0.242004 0.642,0.471001 0.970001,0.699005l0.171,0.113998c0.320999,0.213997 0.649,0.420998 0.983999,0.627998l1.740999,0.947998l1.026001,0.521004c-2.325001,-5.754997 -3.452,-12.103001 -2.966999,-18.436001c-2.011002,0.973999 -4.236,1.566002 -6.603001,1.566002" id="SVGID_12_"/>
     </defs>
     <clipPath id="SVGID_13_">
      <use id="svg_55" xlink:href="#SVGID_12_"/>
     </clipPath>
     <radialGradient gradientUnits="userSpaceOnUse" gradientTransform="matrix(0.1415 0 0 0.1415 0 7.2173)" r="1380.1733" cy="222.2859" cx="278.1379" id="SVGID_14_">
      <stop stop-color=" hsl(76, 78%, 48%)" offset="0.0971"/>
      <stop stop-color=" hsl(77, 87%, 45%)" offset="0.1104"/>
      <stop stop-color=" hsl(82, 75%, 46%)" offset="0.1259"/>
      <stop stop-color=" hsl(89, 62%, 47%)" offset="0.1423"/>
      <stop stop-color=" hsl(102, 48%, 50%)" offset="0.154"/>
     </radialGradient>
     <rect id="svg_56" clip-path="url(#SVGID_13_)" fill="url(#SVGID_14_)" height="20.39" width="16.189" y="53.538" x="20.161"/>
    </g>
   </g>
  </g>
  <g id="svg_57">
   <g id="svg_58">
    <g id="svg_59">
     <defs>
      <path d="m46.421001,74.989998c-0.535,0 -1.07,-0.014 -1.612003,-0.035995c-3.059998,-0.143005 -6.137997,-0.755005 -8.926998,-1.625l12.085999,6.103996c3.309002,1.605003 5.52,4.992004 5.52,8.922005v0.014v0.006996v0.007004l0,0c0,0.006996 0,0.006996 0,0.014l0,0v0.014l0,0v0.014l0,0v0.014l0,0v0.014l0,0c0,0.006996 0,0.020996 0,0.028999c0,2.567001 -0.905998,4.898994 -2.531998,6.639999l0.391998,0.456001l0,0c10.735001,-5.079002 14.019997,-12.875999 14.249001,-21.723v-0.021004v-0.006996v-0.014c0.134003,-1.383003 0.027,-3.046005 -0.292,-4.550003c-5.484001,3.623001 -11.881001,5.726997 -18.883999,5.726997m-14.991001,-20.831997c2.667,-1.348 4.891998,-3.495003 6.326,-6.132999l1.176998,-2.097l-0.777,-0.392002c-0.042999,-0.021 -0.085999,-0.042999 -0.120998,-0.063999c-0.221001,-0.113998 -0.435001,-0.228001 -0.648998,-0.356998c0,0 0,0 -0.007,0c0,0 -0.007,0 -0.007,-0.007c-0.007,0 -0.007,-0.007 -0.014,-0.007c0,0 0,0 -0.007,0c-1.241001,-0.749001 -2.439003,-1.769001 -3.245003,-2.967003c-1.570999,3.944 -2.369999,7.995003 -2.675999,12.024002" id="SVGID_15_"/>
     </defs>
     <clipPath id="SVGID_16_">
      <use id="svg_60" xlink:href="#SVGID_15_"/>
     </clipPath>
     <linearGradient gradientTransform="matrix(0.1415 0 0 0.1415 0 7.2173)" y2="10.090403" x2="13.367997" y1="4.286922" x1="4.333627" id="SVGID_17_">
      <stop stop-color=" hsl(78, 49%, 47%)" offset="0.09"/>
      <stop stop-color="#72A140" offset="0.487"/>
      <stop stop-color="#236235" offset="0.7629"/>
      <stop stop-color="#1C5730" offset="0.794"/>
      <stop stop-color="#114829" offset="0.8443"/>
     </linearGradient>
     <rect id="svg_61" clip-path="url(#SVGID_16_)" fill="url(#SVGID_17_)" height="55.321" width="35.537" y="41.735" x="31.144"/>
    </g>
   </g>
  </g>
  <g id="svg_62">
   <g id="svg_63">
    <g id="svg_64">
     <defs transform="translate(30.402999877929688,45.24300003051758) scale(1.1125587224960327,1) translate(-30.402999877929688,-45.24300003051758) ">
      <path d="m37.755001,48.025002c-1.433002,2.639 -3.651001,4.785 -6.326,6.132999c-0.485001,6.34 0.542,12.622997 2.867001,18.378002l1.725998,0.862999c2.789001,0.876999 5.415001,1.403 8.475002,1.539001c0.828999,0.050995 2.205997,0.104996 2.847,0.104996c7.010998,0 12.495998,-2.067001 17.979996,-5.690002c-0.264,-1.311996 -0.481995,-2.686996 -0.952995,-3.905998l-0.014,-0.014c-0.471001,-1.211998 -1.034,-2.368 -1.690002,-3.473l-0.042999,-0.070999c-0.428001,-0.720001 -0.899002,-1.411999 -1.404999,-2.082001l-0.036003,-0.049999c-0.241997,-0.320999 -0.491997,-0.627998 -0.756001,-0.933998l-0.099998,-0.114002c-0.264,-0.306999 -0.528,-0.605999 -0.799,-0.890999l-0.021,-0.021c-0.264,-0.278 -0.542,-0.556 -0.827,-0.82l-0.113998,-0.107002c-0.278004,-0.264 -0.563004,-0.513 -0.856003,-0.763l-0.156998,-0.149998c-0.300003,-0.25 -0.599003,-0.492001 -0.913002,-0.727001l-0.042999,-0.028999c-0.299999,-0.228001 -0.605999,-0.442001 -0.919998,-0.649002l-0.171001,-0.120998c-0.306999,-0.207001 -0.628002,-0.407001 -0.949001,-0.598999c-0.063999,-0.035999 -0.127998,-0.077999 -0.193001,-0.114002c-0.327999,-0.192997 -0.662998,-0.377998 -1.005997,-0.556c-0.007,0 -0.014,-0.007 -0.021,-0.007l-14.406002,-7.223999l-1.175999,2.094002z" id="SVGID_18_"/>
     </defs>
     <clipPath transform="translate(30.402999877929688,45.24300003051758) scale(1.1125587224960327,1) translate(-30.402999877929688,-45.24300003051758) " id="SVGID_19_">
      <use id="svg_65" xlink:href="#SVGID_18_"/>
     </clipPath>
     <radialGradient transform="translate(30.402999877929688,45.24300003051758) scale(1.1125587224960327,1) translate(-30.402999877929688,-45.24300003051758) " gradientUnits="userSpaceOnUse" gradientTransform="matrix(0.01 -0.1412 0.261 0.0185 -7.1476 20.3287)" fy="231.0925" fx="-124.0636" r="126.2012" cy="222.2934" cx="-246.4093" id="SVGID_20_">
      <stop stop-color=" hsl(83, 78%, 51%)" offset="0"/>
      <stop stop-color=" hsl(79, 83%, 44%)" offset="0.3658"/>
      <stop stop-color=" hsl(81, 86%, 42%)" offset="0.5259"/>
      <stop stop-color=" hsl(91, 82%, 40%)" offset="0.7452"/>
      <stop stop-color=" hsl(102, 60%, 43%)" offset="0.83"/>
      <stop stop-color="#3C9A44" offset="1"/>
     </radialGradient>
     <rect id="svg_66" clip-path="url(#SVGID_19_)" fill="url(#SVGID_20_)" height="30.224" width="39.536999" y="45.243" x="30.403"/>
    </g>
   </g>
  </g>
  <rect x="3.999998" id="svg_67" fill="none" height="90.999998" width="71.952001" y="20.217002"/>
 </g>
</svg>