<?xml version="1.0" encoding="utf-8"?>
<!-- Generator: Adobe Illustrator 17.1.0, SVG Export Plug-In . SVG Version: 6.00 Build 0)  -->
<!DOCTYPE svg PUBLIC "-//W3C//DTD SVG 1.1//EN" "http://www.w3.org/Graphics/SVG/1.1/DTD/svg11.dtd">
<svg version="1.1" id="Layer_1" xmlns="http://www.w3.org/2000/svg" xmlns:xlink="http://www.w3.org/1999/xlink" x="0px" y="0px"
	 viewBox="0 0 72 72" enable-background="new 0 0 72 72" xml:space="preserve">
<g>
	<path opacity="0.5" fill="#CCCCCC" enable-background="new    " d="M69.2,66.8c0,2.9-14.9,5.2-33.2,5.2S2.8,69.7,2.8,66.8
		s17.4-5.2,33.2-5.2C54.8,61.7,69.2,64,69.2,66.8z"/>
	<g>
		<path fill="#028CB9" d="M4.4,54.4l8.7-11.3c4.3,4,10.2,6.2,16.2,6.2c6.8,0,10.2-3.4,10.2-7.2c0-4.2-3.3-7.2-9.7-7.2
			c-4.9,0-8.9,1.4-12.4,4.7L6.3,36.8V0h45.2v14H22.4v12c3-2.9,7.8-4.9,13.4-4.9c10.6,0,20.1,7.7,20.1,20.3c0,13.5-10.2,22-26.4,22
			C18.4,63.4,10.1,60,4.4,54.4z"/>
	</g>
	<g opacity="5.000000e-02">
		<g>
			<g>
				<path d="M64.3,52.6c-0.6,0-1.2-0.3-1.6-2.2c-0.4-1.9-1.1-4-1.1-4c0.7,0,1.1-0.3,1.1-0.3c-0.5-0.2-1.5-0.9-2.2-1.8
					c-0.7-0.9-2.4-2.4-2.4-2.4s0-0.9,0-2.9c0-2,1.2-3.5,1.2-3.5c-0.8,0-1.2,0.8-1.2,0.8s0,0,0-4.1s2.1-5.9,2.1-5.9
					c-0.6,0-1.1,0.3-1.1,0.3c0.3-3,1.2-3.9,1.2-3.9c-3.4-0.9-5.3,1.1-5.3,1.1c-0.4-1.8,1.1-2.9,1.1-2.9C54.4,20.5,53,21,53,21
					c0-2.7,1.1-3.6,1.1-3.6c-5.3,0-8.3,4-8.3,4c-0.2-1.7,0.3-3.2,0.3-3.2c-5.2,2.2-6.5,7-6.5,7c-0.3-0.8-0.4-2.6-0.4-2.6
					s-2.1,3.5-2.5,6c-0.4,2.5,0.3,9.5,0.3,9.5s-0.3-0.4-1.1-0.5c0,0,0.8,0.8,0.8,2.8c0,0-0.3-0.3-0.8-0.1c0,0,0.8,0.7,0.9,1.9
					c0,0-0.9,0.6-1.4,1.3c0,0-0.8,0-1.2,0.2c0,0,0.7,0.4,0.8,0.7c0,0-2,2-3,3.7c0,0,0.9-0.6,1.5-0.4c0,0-1.4,1.7-1.9,4.5
					c0,0,0.7-0.3,1-0.2c0,0-0.8,1.8-0.9,3.6l-0.9,0.6l0.7,0.5c0,0-0.6,2.3-0.7,3.6c0,0,0.4-0.4,0.8-0.6c0,0,0.5,1.1,1.1,1.9
					c0.6,0.8,2.1,1.6,3,1.6l1.6,0c-0.2,0.9-0.6,1.6-1.4,1.6L35.6,65h0c0,0.2-0.5,0.3-0.6,0.5c-0.4,0.5-0.7,1.2-1,1.9
					c-0.1,0.5-0.1,0.5-0.2,1c0,0.1-0.2,0.3-0.3,0.5c0.5-0.1,1.8-0.3,2.4-0.3v0.6c0,0,0.1,0.1,0.3,0.2l0,0c0,0,0.1,0,0.2,0
					c1-0.1,1.7,0.1,2.9,0c0.2,0,0.5,0,0.6-0.2c0-0.2,0-0.2,0.1-0.4c0,0,0-0.1,0-0.1h0c0,0,0,0,0,0l0,0h0h0c0.2,0,0.6,0,0.8,0
					c0.7,0,1.6,0.1,1.6,0.1c0-0.8,0.1-2,1.3-5.4l0.3-0.2c0,0,3.8,1.3,7.4,0c0.3,0.7,1.2,3,1.3,4.5c0.1,0.2,0.1,0.4,0.1,0.6
					c0,0.2,0,0.4,0,0.6c0.1,0,0.6-0.1,1.2-0.1c0.2,0,0.6,0,0.8,0h0h0l0,0c0,0,0,0,0,0h0c0,0,0,0.1,0,0.1c0,0.2,0,0.2,0.1,0.4
					c0,0,0,0,0,0c0.6-0.1,1.3-0.1,1.9,0c0.5,0,1,0.1,1.5,0.2l0,0c0,0,0.1,0,0.1,0c0.3,0,0.6,0.1,0.8,0.1c0-0.3,0-0.6,0-0.9
					c0.6,0,1.3,0.1,1.6,0.2c0.1,0,0.2,0,0.3,0.1h0l0,0c0.1,0,0.2,0,0.4,0.1c0-0.3,0-0.3,0-0.6c0-0.3-0.2-1.1-0.6-1.5
					c0,0,0.4,0.2,0.6,0.2c-0.4-0.6-0.6-1.3-1.8-1.8c0,0,0.2-0.1,0.5-0.1C60.2,65,60.1,65,59.8,65c0.1-0.2,0.4-0.7,0.7-0.8
					c0,0-0.2-0.1-0.5,0c-0.1,0-0.2,0.1-0.3,0.2c0,0-0.1,0-0.1,0c-0.1-0.3-0.1-0.6-0.2-1c2.5-0.1,2.9-1.4,2.9-1.4
					c0.2,0.2,0.2,0.6,0.2,0.6c1.1-1.4,1-2.9,1-2.9c0.3,0,0.5,0.2,0.5,0.2c0.1-2.2-0.6-6-0.6-6c0.3,0.2,0.6,0,0.6,0
					c-0.4-0.2-0.4-0.6-0.4-0.6C64.2,53.1,64.3,52.6,64.3,52.6z"/>
			</g>
			<path d="M39.9,68.7c0,0,0.1-1.1-0.2-1.8c0,0,0.6,0,0.8,1.8C40.5,68.6,40,68.7,39.9,68.7z"/>
			<path d="M36.6,65L36.6,65L36.6,65z"/>
			<path d="M37.2,68.6L37.2,68.6L37.2,68.6L37.2,68.6z"/>
			<path d="M45.7,21.4c-0.2-1.7,0.3-3.2,0.3-3.2c-5.2,2.2-6.5,7-6.5,7c-0.3-0.8-0.4-2.6-0.4-2.6s-2.1,3.5-2.5,6
				c-0.4,2.5,0.3,9.5,0.3,9.5s-0.3-0.4-1.1-0.5c0,0,0.8,0.8,0.8,2.8c0,0-0.3-0.3-0.8-0.1c0,0,0.8,0.7,0.9,1.9c0,0-0.9,0.6-1.4,1.3
				c0,0-0.8,0-1.2,0.2c0,0,0.7,0.4,0.8,0.7c0,0-2,2-3,3.7c0,0,0.9-0.6,1.5-0.4c0,0-1.4,1.7-1.9,4.5c0,0,0.7-0.3,1-0.2
				c0,0-0.8,1.8-0.9,3.6l-0.9,0.6l0.7,0.5c0,0-0.6,2.3-0.7,3.6c0,0,0.4-0.4,0.8-0.6c0,0,0.5,1.1,1.1,1.9c0.6,0.8,2.1,1.6,3,1.6h0.1
				c0,0.3-0.1,0.6-0.2,0.9c0,0,0,0-0.1,0c-0.1-0.1-0.2-0.1-0.3-0.2c-0.3-0.1-0.5,0-0.5,0c0.3,0.1,0.6,0.6,0.7,0.8
				c-0.2,0-0.4,0-0.6,0.2c0.2,0,0.5,0.1,0.5,0.1c-1.2,0.6-1.5,1.3-1.8,1.8c0.1-0.1,0.6-0.2,0.6-0.2c-0.4,0.4-0.6,1.2-0.6,1.5
				c0,0.4,0,0.4,0,0.6c0.3-0.1,0.5-0.1,0.8-0.2c0.4,0,1.6-0.2,2-0.1l0,0.9l0,0c0.2-0.3,0.4-0.1,0.6-0.1c0-0.2,0-0.5,0-0.7
				c0-0.4,0-0.7,0.1-1.2v0c0.1-0.6,0.4-0.8,0.6-1c0,0,0.1-0.1,0.1-0.2c0.1-0.1,0.2-0.3,0.3-0.6c0.2-0.5,0.1-1.5-0.2-2.5
				c0.4,0.6,0.7,1,0.9,1.2v-1.3c0,0,0.7,0.7,1.3,1.2c0.3,0.3,0.6,0.6,0.9,0.7l0,0l0,0l0,0c0.3,0.2,0.7,0.4,1,0.6c0,0,0.1,0,0.1,0
				c0.1,0.1,0.4,0.2,0.6,0.4l0.2,2.7c0.2-2.9,1.8-5.6,1.8-5.6h0c-0.5-0.1-4.2-1.4-6.4-6c-0.1-0.3,0.8,0.3,0.8,0.3
				c-0.9-2.2-1.2-5.7-1.2-5.7c0.3,0.3,0.6,0.3,0.6,0.3c-0.6-1.8-0.9-4-0.9-6c-0.2-10.8,3.8-13.2,3.8-13.2c-0.7-0.3-1.4-0.2-1.4-0.2
				c0.8-1.9,3.4-4.5,3.4-4.5c-0.7,0-3.5,0.8-3.5,0.8c2.3-5.9,4.6-7.5,4.6-7.5c-0.2,1.4,0.4,3,0.4,3c4.8-6.2,8.8-5.9,8.8-5.9
				c0.3-0.6,0.6-1,0.6-1C48.7,17.4,45.7,21.4,45.7,21.4z"/>
			<path d="M59.6,68.6c0,0,0-1.5-0.4-2.3c0,0,0.9,0.6,0.9,2.4C60.2,68.7,59.7,68.6,59.6,68.6z"/>
			<path d="M35.8,60.7c0.6-5.9,0.8-17.5,0.8-17.5c-1.3,2.6-2.4,7.3-2.4,7.3l0.3,1L34,51.3c-0.9,3.2-0.3,7.5-0.1,8.7
				C34.4,60.5,35.1,60.6,35.8,60.7z"/>
			<path d="M34.6,60.6c0.2,1,0.4,1.8,0.6,2.8c0.1,0,0.3,0,0.3,0c0.1-0.6,0.2-1.5,0.3-2.5C35.4,60.8,35,60.7,34.6,60.6z"/>
			<path d="M54.6,65.7C54.5,65.7,54.5,65.7,54.6,65.7c-0.1,0-0.2,0-0.2,0l0,0c0.9-0.6,1-1.3,1-1.3c-0.6,0.3-1.2,0.4-1.5,0.4
				c2-1.8,2.4-5,2.4-5c-0.8,1-2,1.9-2.9,2.4l0,0c0,0-0.6,0.3-1.2,0.6c0,0,0,0,0,0c-0.3,0.1-0.6,0.2-0.7,0.3c0,0,0.5,0.9,0.6,1.3l0,0
				c0,0,0.7,1.6,0.9,3.2c0,0.3,0,0.5,0,0.7c0,0.2,0,0.4,0,0.4c0.9-0.1,2.2,0,2.2,0c0,0.1,0.1,0.5,0.1,0.6c0.4,0,0.9-0.1,1.3-0.1
				C56.5,67.6,56.4,65.1,54.6,65.7z"/>
			<path d="M35.8,61.2c-1.4-0.2-2.7-1.8-2.7-1.8c1,1.1,2.3,1.2,2.3,1.2c0.2-1.2-0.9-4.1-0.9-4.1c0.8,1,1.2,2.1,1.4,3L35.8,61.2z"/>
			<path d="M39,59c0,0,1.1,1.9,2.1,2.8c1.1,0.9,2,2.2,2.4,3c0,0,0.5-1.2,0.8-1.7C44.3,63.1,41.2,62.2,39,59z"/>
			<path d="M53.5,62.8c0.1-0.2,0.3-0.4,0.5-0.6c0.3-0.3,0.6-0.6,0.8-1c-0.4,0.3-0.8,0.6-1.3,0.8c-1.3,0.9-2.3,1.2-2.3,1.2
				c0.3,0.4,0.8,1.7,0.8,1.7c0.2-0.5,0.7-1.2,1.2-1.8C53.4,62.9,53.4,62.8,53.5,62.8z"/>
			<path d="M38.5,29.8c-0.1,0-0.5,0-0.5,0c-3.5,0.2-6.1-2.5-6.1-2.5s-0.2,2.1,1.3,4c1.5,1.8,4.6,2.2,4.6,2.2
				c0.1,0.4-0.1,1.4-0.1,1.4s0.9-1,1.2-2.9C39,30.7,38.6,29.8,38.5,29.8"/>
			<path d="M38.5,29.8c-0.1,0-0.5,0-0.5,0c-3.5,0.2-6.1-2.5-6.1-2.5s1.6,4.7,7,4.3C38.9,31.6,39,30.8,38.5,29.8"/>
			<path d="M56.1,29.8c0.1,0,0.5,0,0.5,0c3.5,0.2,6.1-2.5,6.1-2.5s0.2,2.1-1.3,4c-1.5,1.8-4.6,2.2-4.6,2.2c-0.1,0.4,0.1,1.4,0.1,1.4
				s-0.9-1-1.2-2.9C55.6,30.7,56,29.8,56.1,29.8"/>
			<path d="M56.1,29.8c0.1,0,0.5,0,0.5,0c3.5,0.2,6.1-2.5,6.1-2.5s-1.6,4.7-7,4.3C55.7,31.6,55.6,30.8,56.1,29.8"/>
			<path d="M36.7,45.5c0,0-2.7,9.1,0,14.9V45.5z"/>
			<path d="M61.9,59.9c-1.2,1-2.5,1-2.5,1c0-1.2,1.3-4,1.3-4c-0.3,0.2-0.6,0.4-0.8,0.6v-0.9l1-0.8L60,55.2l1-4l-1,0.6
				c0,0-0.3-5.7-0.1-8.2c0,0-1.2-1.2-1.8-1.7c0,0,0.1,1.8,0.2,4.6c0.6,2.3,1.4,6.9,0.3,11.1c0,0.8,0,1.7,0,2.5c0,0,0.5,1.8,0.7,3.1
				c0,0,0.2,0,0.4,0v-1.9C61.2,60.8,61.9,59.9,61.9,59.9z"/>
			<ellipse cx="51.4" cy="42.3" rx="1.4" ry="1.8"/>
			<ellipse cx="51.4" cy="41.9" rx="1.4" ry="1.7"/>
			<path d="M51.1,41c0,0,0,0.1,0,0.1c0,0.2,0.1,0.5,0.4,0.5c0.2,0,0.3-0.1,0.4-0.4c0.1,0.1,0.2,0.3,0.2,0.6c0,0.5-0.3,0.8-0.6,0.8
				c-0.4,0-0.6-0.4-0.6-0.8C50.7,41.4,50.8,41.1,51.1,41z"/>
			<ellipse cx="44.8" cy="42.3" rx="1.4" ry="1.8"/>
			<ellipse cx="44.8" cy="41.9" rx="1.4" ry="1.7"/>
			<path d="M44.7,41c0,0,0,0.1,0,0.1c0,0.2,0.1,0.5,0.4,0.5c0.2,0,0.3-0.1,0.4-0.4c0.1,0.1,0.2,0.3,0.2,0.6c0,0.5-0.3,0.8-0.6,0.8
				s-0.6-0.4-0.6-0.8C44.3,41.4,44.4,41.1,44.7,41z"/>
			<path d="M56.1,40.2c-0.6-0.1-1.7-0.2-3-0.1c-1.7,0.1-3.1,0.3-4,0.5c-0.3,0-0.5,0.1-0.6,0.1h-0.2c-0.2,0-0.3,0-0.4,0s-0.2,0-0.4,0
				h-0.2c-0.1,0-0.4,0-0.6-0.1c-0.9-0.1-2.3-0.4-4-0.5c-1.3,0-2.4,0-3,0.1c0,0-0.6,0.1-1.2,0.3l0.1,0.7c0,0,0.6-0.1,1.2-0.2
				c0.1,1,0.3,2.3,0.3,2.3v0c0,0,0,0.1,0,0.2c0.1,0.5,0.2,0.8,0.7,1c0.5,0.2,1.6,0.3,2.7,0.4c0.4,0,0.9,0,1.4-0.1
				c0.7-0.1,1.3-0.3,1.6-0.5c0.4-0.3,0.6-0.9,0.7-1.4l0-0.1c0-0.1,0.1-0.3,0.1-0.5c0-0.2,0.1-0.5,0.1-0.5c0,0,0,0,0.2-0.1
				c0,0,0.1,0,0.2,0c0,0,0.1,0,0.2,0c0.1,0,0.2,0.1,0.2,0.1c0,0.1,0.1,0.3,0.1,0.5c0,0.1,0.1,0.3,0.1,0.5l0,0.1
				c0.1,0.5,0.3,1.1,0.7,1.4c0.2,0.2,0.9,0.4,1.6,0.5c0.5,0.1,1,0.1,1.4,0.1c1.1,0,2.2-0.2,2.7-0.4c0.5-0.2,0.6-0.5,0.7-1
				c0,0,0-0.1,0-0.2v0c0,0,0.2-1.3,0.3-2.3c0.6,0.1,1.2,0.2,1.2,0.2l0.1-0.7C56.7,40.3,56.1,40.2,56.1,40.2z M46.8,41.8L46.8,41.8
				c0,0.2-0.2,1.4-0.4,1.8c-0.2,0.4-0.3,0.5-1.1,0.6c0,0,0,0-0.1,0c-0.8,0.1-2.3,0.1-3.1,0h0C41.3,44,41,44,40.9,43.7
				c-0.1-0.4-0.3-2-0.4-2.4c0-0.3,0.2-0.4,0.3-0.4c0,0,0.1,0,0.2,0c0.6-0.1,1.9-0.2,2.5-0.1c0.8,0,2.7,0.3,3.1,0.5
				C46.9,41.4,46.8,41.5,46.8,41.8z M55,43.7c-0.1,0.3-0.4,0.3-1.2,0.5h0c-0.8,0.1-2.3,0.1-3.1,0c0,0,0,0-0.1,0
				c-0.7-0.1-0.8-0.2-1.1-0.6c-0.2-0.4-0.4-1.6-0.4-1.8l0,0c0-0.2,0-0.4,0.3-0.5c0.4-0.2,2.3-0.5,3.1-0.5c0.6,0,1.9,0,2.5,0.1
				c0.1,0,0.1,0,0.2,0c0,0,0.3,0.1,0.3,0.4C55.4,41.7,55.1,43.3,55,43.7z"/>
			<path d="M45.2,38.4c0,0-1.5-0.7-2.4,0.6c0,0-0.1-1.3,1.2-1.5C45.2,37.4,45.2,38.4,45.2,38.4z"/>
			<path d="M44.6,36.4c0,0-1.4-0.7-2.1,0.6c0,0-0.2-1.2,0.8-1.4C44.4,35.4,44.6,36.4,44.6,36.4z"/>
			<path d="M50.7,39.2c0,0,1.2-0.6,1.9,0.5c0,0,0.1-1.1-0.9-1.2C50.8,38.4,50.7,39.2,50.7,39.2z"/>
			<path d="M51.6,37.3c0,0,1.2-0.2,1.4,0.9c0,0,0.4-0.8-0.3-1.2C52,36.6,51.6,37.3,51.6,37.3z"/>
			<path d="M45.1,49.1c0,0,0.8-0.6,1.3-0.6c0,0,0.1,1.1,0.6,1.6c0,0,1.1-1,2.1-1c0,0,0.3,0.6,0.7,0.8l0,0c0.1,0.1,0.4,0.2,0.6,0.2
				c0,0,0.6-0.4,0.8-1.1c0,0,0,1.4-0.8,2.2c0,0-0.7-0.3-1.2-0.9c-0.1-0.1-0.3-0.3-0.4-0.5c0,0-1.6,1.1-1.6,1.8c0,0-1.2-1.1-1.5-1.9
				c0,0-0.7,0.2-1,0.4c0,0-0.6-1-0.7-1.9C44,48.3,44.8,49,45.1,49.1z"/>
		</g>
		<path d="M45.9,47.2c0,0,0.9-0.4,1.1-0.7c0,0,2.3,0.2,3.8-1C50.8,45.6,49.2,49.3,45.9,47.2z"/>
	</g>
	<g>
		<g>
			<g>
				<path fill="#EAF7FE" d="M65.1,52.3c-0.6,0-1.2-0.3-1.6-2.2s-1.1-4-1.1-4c0.7,0,1.1-0.3,1.1-0.3c-0.5-0.2-1.5-0.9-2.2-1.8
					c-0.7-0.9-2.4-2.4-2.4-2.4s0-0.9,0-2.9c0-1.9,1.2-3.5,1.2-3.5C59.4,35.3,59,36,59,36s0,0,0-4.1S61,26,61,26
					c-0.6,0-1.1,0.3-1.1,0.3c0.3-3,1.2-3.9,1.2-3.9c-3.4-0.9-5.3,1.1-5.3,1.1c-0.4-1.8,1.1-2.9,1.1-2.9c-1.8-0.4-3.2,0.1-3.2,0.1
					c0-2.7,1.1-3.6,1.1-3.6c-5.3,0-8.3,4-8.3,4c-0.2-1.7,0.3-3.2,0.3-3.2c-5.2,2.2-6.5,7-6.5,7C40,24.1,40,22.3,40,22.3
					s-2.1,3.5-2.5,6c-0.4,2.5,0.3,9.5,0.3,9.5s-0.3-0.4-1.1-0.5c0,0,0.8,0.8,0.8,2.8c0,0-0.3-0.3-0.8-0.1c0,0,0.8,0.7,0.9,1.9
					c0,0-0.9,0.6-1.4,1.3c0,0-0.8,0-1.2,0.2c0,0,0.7,0.4,0.8,0.7c0,0-2,2-3,3.7c0,0,0.9-0.6,1.5-0.4c0,0-1.4,1.7-1.9,4.5
					c0,0,0.7-0.3,1-0.2c0,0-0.8,1.8-0.9,3.6L31.4,56l0.7,0.5c0,0-0.6,2.3-0.7,3.6c0,0,0.4-0.4,0.8-0.6c0,0,0.5,1.1,1.1,1.9
					c0.6,0.8,2.1,1.6,3,1.6l1.6,0c-0.2,0.9-0.6,1.6-1.4,1.6l-0.1,0.1h0c0,0.2-0.5,0.3-0.6,0.5c-0.4,0.5-0.7,1.2-1,1.9
					c-0.1,0.5-0.1,0.5-0.2,1c0,0.1-0.2,0.3-0.3,0.5c0.5-0.1,1.8-0.3,2.4-0.3v0.6c0,0,0.1,0.1,0.3,0.2l0,0c0,0,0.1,0,0.2,0
					c1-0.1,1.7,0.1,2.9,0c0.2,0,0.5,0,0.6-0.2c0-0.2,0-0.2,0.1-0.4c0,0,0-0.1,0-0.1h0c0,0,0,0,0,0l0,0h0h0c0.2,0,0.6,0,0.8,0
					c0.7,0,1.6,0.1,1.6,0.1c0-0.8,0.1-2,1.3-5.4l0.3-0.2c0,0,3.8,1.3,7.4,0c0.3,0.7,1.2,3,1.3,4.5c0.1,0.2,0.1,0.4,0.1,0.6
					c0,0.2,0,0.4,0,0.6c0.1,0,0.6-0.1,1.2-0.1c0.2,0,0.6,0,0.8,0h0h0l0,0c0,0,0,0,0,0h0c0,0,0,0.1,0,0.1c0,0.2,0,0.2,0.1,0.4
					c0,0,0,0,0,0c0.6-0.1,1.3-0.1,1.9,0c0.5,0,1,0.1,1.5,0.2l0,0c0,0,0.1,0,0.1,0c0.3,0,0.6,0.1,0.8,0.1c0-0.3,0-0.6,0-0.9
					c0.6,0,1.3,0.1,1.6,0.2c0.1,0,0.2,0,0.3,0.1h0l0,0c0.1,0,0.2,0,0.4,0.1c0-0.3,0-0.3,0-0.6c0-0.3-0.2-1.1-0.6-1.5
					c0,0,0.4,0.2,0.6,0.2c-0.4-0.6-0.6-1.3-1.8-1.8c0,0,0.2-0.1,0.5-0.1c-0.2-0.1-0.4-0.2-0.6-0.2c0.1-0.2,0.4-0.7,0.7-0.8
					c0,0-0.2-0.1-0.5,0c-0.1,0-0.2,0.1-0.3,0.2c0,0-0.1,0-0.1,0c-0.1-0.3-0.1-0.6-0.2-1c2.5-0.1,2.9-1.4,2.9-1.4
					c0.2,0.2,0.2,0.6,0.2,0.6c1.1-1.4,1-2.9,1-2.9c0.3,0,0.5,0.2,0.5,0.2c0.1-2.2-0.6-6-0.6-6c0.3,0.2,0.6,0,0.6,0
					c-0.4-0.2-0.4-0.6-0.4-0.6C65.1,52.8,65.1,52.3,65.1,52.3z"/>
			</g>
			<path fill="#CDEAF5" d="M40.8,68.4c0,0,0.1-1.1-0.2-1.8c0,0,0.6,0,0.8,1.8C41.3,68.3,40.8,68.4,40.8,68.4z"/>
			<path fill="#CDEAF5" d="M37.4,64.8L37.4,64.8C37.5,64.7,37.5,64.8,37.4,64.8z"/>
			<path fill="#CDEAF5" d="M38.1,68.3L38.1,68.3L38.1,68.3L38.1,68.3z"/>
			<path fill="#CDEAF5" d="M46.6,21.1c-0.2-1.7,0.3-3.2,0.3-3.2c-5.2,2.2-6.5,7-6.5,7C40,24.1,40,22.3,40,22.3s-2.1,3.5-2.5,6
				c-0.4,2.5,0.3,9.5,0.3,9.5s-0.3-0.4-1.1-0.5c0,0,0.8,0.8,0.8,2.8c0,0-0.3-0.3-0.8-0.1c0,0,0.8,0.7,0.9,1.9c0,0-0.9,0.6-1.4,1.3
				c0,0-0.8,0-1.2,0.2c0,0,0.7,0.4,0.8,0.7c0,0-2,2-3,3.7c0,0,0.9-0.6,1.5-0.4c0,0-1.4,1.7-1.9,4.5c0,0,0.7-0.3,1-0.2
				c0,0-0.8,1.8-0.9,3.6L31.4,56l0.7,0.5c0,0-0.6,2.3-0.7,3.6c0,0,0.4-0.4,0.8-0.6c0,0,0.5,1.1,1.1,1.9c0.6,0.8,2.1,1.6,3,1.6h0.1
				c0,0.3-0.1,0.6-0.2,0.9c0,0,0,0-0.1,0c-0.1-0.1-0.2-0.1-0.3-0.2c-0.3-0.1-0.5,0-0.5,0c0.3,0.1,0.6,0.6,0.7,0.8
				c-0.2,0-0.4,0-0.6,0.2c0.2,0,0.5,0.1,0.5,0.1c-1.2,0.6-1.5,1.3-1.8,1.8c0.1-0.1,0.6-0.2,0.6-0.2c-0.4,0.4-0.6,1.2-0.6,1.5
				c0,0.4,0,0.4,0,0.6c0.3-0.1,0.5-0.1,0.8-0.2c0.4,0,1.6-0.2,2-0.1l0,0.9l0,0c0.2-0.3,0.4-0.1,0.6-0.1c0-0.2,0-0.5,0-0.7
				c0-0.4,0-0.7,0.1-1.2v0c0.1-0.6,0.4-0.8,0.6-1c0,0,0.1-0.1,0.1-0.2c0.1-0.1,0.2-0.3,0.3-0.6c0.2-0.5,0.1-1.5-0.2-2.5
				c0.4,0.6,0.7,1,0.9,1.2v-1.3c0,0,0.7,0.7,1.3,1.2c0.3,0.3,0.6,0.6,0.9,0.7l0,0l0,0l0,0c0.3,0.2,0.7,0.4,1,0.6c0,0,0.1,0,0.1,0
				c0.1,0.1,0.4,0.2,0.6,0.4l0.2,2.7c0.2-2.9,1.8-5.6,1.8-5.6h0c-0.5-0.1-4.2-1.4-6.4-6c-0.1-0.3,0.8,0.3,0.8,0.3
				c-0.9-2.2-1.2-5.7-1.2-5.7c0.3,0.3,0.6,0.3,0.6,0.3c-0.6-1.8-0.9-4-0.9-6c-0.2-10.8,3.8-13.2,3.8-13.2c-0.7-0.3-1.4-0.2-1.4-0.2
				c0.8-1.9,3.4-4.5,3.4-4.5c-0.7,0-3.5,0.8-3.5,0.8c2.3-5.9,4.6-7.5,4.6-7.5c-0.2,1.4,0.4,3,0.4,3c4.9-6.1,8.9-5.8,8.9-5.8
				c0.3-0.6,0.6-1,0.6-1C49.6,17.1,46.6,21.1,46.6,21.1z"/>
			<path fill="#CDEAF5" d="M60.5,68.4c0,0,0-1.5-0.4-2.3c0,0,0.9,0.6,0.9,2.4C61,68.4,60.6,68.4,60.5,68.4z"/>
			<path fill="#ACDBE3" d="M36.7,60.4c0.6-5.9,0.8-17.5,0.8-17.5c-1.3,2.6-2.4,7.3-2.4,7.3l0.3,1L34.8,51c-0.9,3.2-0.3,7.5-0.1,8.7
				C35.3,60.2,36,60.3,36.7,60.4z"/>
			<path fill="#ACDBE3" d="M35.4,60.3c0.2,1,0.4,1.8,0.6,2.8c0.1,0,0.3,0,0.3,0c0.1-0.6,0.2-1.5,0.3-2.5
				C36.2,60.5,35.8,60.4,35.4,60.3z"/>
			<path fill="#CDEAF5" d="M55.5,65.4C55.4,65.4,55.4,65.4,55.5,65.4c-0.1,0-0.2,0-0.2,0l0,0c0.9-0.6,1-1.3,1-1.3
				c-0.6,0.3-1.2,0.4-1.5,0.4c2-1.8,2.4-5,2.4-5c-0.8,1-2,1.9-2.9,2.4l0,0c0,0-0.6,0.3-1.2,0.6c0,0,0,0,0,0
				c-0.3,0.1-0.6,0.2-0.7,0.3c0,0,0.5,0.9,0.6,1.3l0,0c0,0,0.7,1.6,0.9,3.2c0,0.3,0,0.5,0,0.7c0,0.2,0,0.4,0,0.4
				c0.9-0.1,2.2,0,2.2,0c0,0.1,0.1,0.5,0.1,0.6c0.4,0,0.9-0.1,1.3-0.1C57.3,67.3,57.3,64.9,55.5,65.4z"/>
			<path fill="#85C1CE" d="M36.6,60.9C35.2,60.7,34,59,34,59c1,1.1,2.3,1.2,2.3,1.2c0.2-1.2-0.9-4.1-0.9-4.1c0.8,1,1.2,2.1,1.4,3
				L36.6,60.9z"/>
			<path fill="#ACDBE3" d="M39.8,58.7c0,0,1.1,1.9,2.1,2.8c1.1,0.9,2,2.2,2.4,3c0,0,0.5-1.2,0.8-1.7C45.2,62.8,42.1,61.9,39.8,58.7z
				"/>
			<path fill="#ACDBE3" d="M54.3,62.5c0.1-0.2,0.3-0.4,0.5-0.6c0.3-0.3,0.6-0.6,0.8-1c-0.4,0.3-0.8,0.6-1.3,0.8
				c-1.3,0.9-2.3,1.2-2.3,1.2c0.3,0.4,0.8,1.7,0.8,1.7c0.2-0.5,0.7-1.2,1.2-1.8C54.2,62.6,54.3,62.6,54.3,62.5z"/>
			<path fill="#5C5B5D" d="M39.4,29.5c-0.1,0-0.5,0-0.5,0c-3.5,0.2-6.1-2.5-6.1-2.5s-0.2,2.1,1.3,4c1.5,1.8,4.6,2.2,4.6,2.2
				c0.1,0.4-0.1,1.4-0.1,1.4s0.9-1,1.2-2.9C39.9,30.4,39.5,29.5,39.4,29.5"/>
			<path fill="#747F83" d="M39.4,29.5c-0.1,0-0.5,0-0.5,0c-3.5,0.2-6.1-2.5-6.1-2.5s1.6,4.7,7,4.3C39.8,31.3,39.9,30.5,39.4,29.5"/>
			<path fill="#5C5B5D" d="M56.9,29.5c0.1,0,0.5,0,0.5,0c3.5,0.2,6.1-2.5,6.1-2.5s0.2,2.1-1.3,4c-1.5,1.8-4.6,2.2-4.6,2.2
				c-0.1,0.4,0.1,1.4,0.1,1.4s-0.9-1-1.2-2.9C56.5,30.4,56.9,29.5,56.9,29.5"/>
			<path fill="#747F83" d="M56.9,29.5c0.1,0,0.5,0,0.5,0c3.5,0.2,6.1-2.5,6.1-2.5s-1.6,4.7-7,4.3C56.6,31.3,56.4,30.5,56.9,29.5"/>
			<path fill="#CDEAF5" d="M37.6,45.3c0,0-2.7,9.1,0,14.9V45.3z"/>
			<path fill="#CDEAF5" d="M62.7,59.6c-1.2,1-2.5,1-2.5,1c0-1.2,1.3-4,1.3-4c-0.3,0.2-0.6,0.4-0.8,0.6v-0.9l1-0.8l-0.8-0.6l1-4
				l-1,0.6c0,0-0.3-5.7-0.1-8.2c0,0-1.2-1.2-1.8-1.7c0,0,0.1,1.8,0.2,4.6c0.6,2.3,1.4,6.9,0.3,11.1c0,0.8,0,1.7,0,2.5
				c0,0,0.5,1.8,0.7,3.1c0,0,0.2,0,0.4,0v-1.9C62,60.6,62.7,59.6,62.7,59.6z"/>
			<ellipse fill="#CDEAF5" cx="52.3" cy="42" rx="1.4" ry="1.8"/>
			<ellipse fill="#FFFFFF" cx="52.3" cy="41.6" rx="1.4" ry="1.7"/>
			<path fill="#4F4E51" d="M51.9,40.7c0,0,0,0.1,0,0.1c0,0.2,0.1,0.5,0.4,0.5c0.2,0,0.3-0.1,0.4-0.4c0.1,0.1,0.2,0.3,0.2,0.6
				c0,0.5-0.3,0.8-0.6,0.8c-0.4,0-0.6-0.4-0.6-0.8C51.5,41.1,51.7,40.8,51.9,40.7z"/>
			<ellipse fill="#CDEAF5" cx="45.6" cy="42" rx="1.4" ry="1.8"/>
			<ellipse fill="#FFFFFF" cx="45.7" cy="41.6" rx="1.4" ry="1.7"/>
			<path fill="#4F4E51" d="M45.5,40.7c0,0,0,0.1,0,0.1c0,0.2,0.1,0.5,0.4,0.5c0.2,0,0.3-0.1,0.4-0.4c0.1,0.1,0.2,0.3,0.2,0.6
				c0,0.5-0.3,0.8-0.6,0.8s-0.6-0.4-0.6-0.8C45.1,41.1,45.3,40.8,45.5,40.7z"/>
			<path fill="#5C5B5D" d="M57,39.9c-0.6-0.1-1.7-0.2-3-0.1c-1.7,0.1-3.1,0.3-4,0.5c-0.3,0-0.5,0.1-0.6,0.1h-0.2c-0.2,0-0.3,0-0.4,0
				s-0.2,0-0.4,0h-0.2c-0.1,0-0.4,0-0.6-0.1c-0.9-0.1-2.3-0.4-4-0.5c-1.3,0-2.4,0-3,0.1c0,0-0.6,0.1-1.2,0.3l0.1,0.7
				c0,0,0.6-0.1,1.2-0.2c0.1,1,0.3,2.3,0.3,2.3v0c0,0,0,0.1,0,0.2c0.1,0.5,0.2,0.8,0.7,1c0.5,0.2,1.6,0.3,2.7,0.4
				c0.4,0,0.9,0,1.4-0.1c0.7-0.1,1.3-0.3,1.6-0.5c0.4-0.3,0.6-0.9,0.7-1.4l0-0.1c0-0.1,0.1-0.3,0.1-0.5c0-0.2,0.1-0.5,0.1-0.5
				c0,0,0,0,0.2-0.1c0,0,0.1,0,0.2,0c0,0,0.1,0,0.2,0c0.1,0,0.2,0.1,0.2,0.1c0,0.1,0.1,0.3,0.1,0.5c0,0.1,0.1,0.3,0.1,0.5l0,0.1
				c0.1,0.5,0.3,1.1,0.7,1.4c0.2,0.2,0.9,0.4,1.6,0.5c0.5,0.1,1,0.1,1.4,0.1c1.1,0,2.2-0.2,2.7-0.4c0.5-0.2,0.6-0.5,0.7-1
				c0,0,0-0.1,0-0.2v0c0,0,0.2-1.3,0.3-2.3c0.6,0.1,1.2,0.2,1.2,0.2l0.1-0.7C57.6,40,57,39.9,57,39.9z M47.7,41.5L47.7,41.5
				c0,0.2-0.2,1.4-0.4,1.8c-0.2,0.4-0.3,0.5-1.1,0.6c0,0,0,0-0.1,0c-0.8,0.1-2.3,0.1-3.1,0h0c-0.8-0.2-1.2-0.2-1.2-0.5
				c-0.1-0.4-0.3-2-0.4-2.4c0-0.3,0.2-0.4,0.3-0.4c0,0,0.1,0,0.2,0c0.6-0.1,1.9-0.2,2.5-0.1c0.8,0,2.7,0.3,3.1,0.5
				C47.8,41.1,47.7,41.3,47.7,41.5z M55.9,43.4c-0.1,0.3-0.4,0.3-1.2,0.5h0c-0.8,0.1-2.3,0.1-3.1,0c0,0,0,0-0.1,0
				c-0.7-0.1-0.8-0.2-1.1-0.6c-0.2-0.4-0.4-1.6-0.4-1.8l0,0c0-0.2,0-0.4,0.3-0.5c0.4-0.2,2.3-0.5,3.1-0.5c0.6,0,1.9,0,2.5,0.1
				c0.1,0,0.1,0,0.2,0c0,0,0.3,0.1,0.3,0.4C56.2,41.4,56,43.1,55.9,43.4z"/>
			<path fill="#A1D4E9" d="M46.1,38.1c0,0-1.5-0.7-2.4,0.6c0,0-0.1-1.3,1.2-1.5C46,37.1,46.1,38.1,46.1,38.1z"/>
			<path fill="#A1D4E9" d="M45.5,36.1c0,0-1.4-0.7-2.1,0.6c0,0-0.2-1.2,0.8-1.4C45.3,35.1,45.5,36.1,45.5,36.1z"/>
			<path fill="#A1D4E9" d="M51.6,39c0,0,1.2-0.6,1.9,0.5c0,0,0.1-1.1-0.9-1.2C51.6,38.2,51.6,39,51.6,39z"/>
			<path fill="#A1D4E9" d="M52.5,37.1c0,0,1.2-0.2,1.4,0.9c0,0,0.4-0.8-0.3-1.2C52.9,36.3,52.5,37.1,52.5,37.1z"/>
			<path fill="#B2DEEF" d="M46,48.9c0,0,0.8-0.6,1.3-0.6c0,0,0.1,1.1,0.6,1.6c0,0,1.1-1,2.1-1c0,0,0.3,0.6,0.7,0.8l0,0
				c0.1,0.1,0.4,0.2,0.6,0.2c0,0,0.6-0.4,0.8-1.1c0,0,0,1.4-0.8,2.2c0,0-0.7-0.3-1.2-0.9c-0.1-0.1-0.3-0.3-0.4-0.5
				c0,0-1.6,1.1-1.6,1.8c0,0-1.2-1.1-1.5-1.9c0,0-0.7,0.2-1,0.4c0,0-0.6-1-0.7-1.9C44.9,48,45.6,48.7,46,48.9z"/>
		</g>
		<path fill="#5C5B5D" d="M46.7,46.9c0,0,0.9-0.4,1.1-0.7c0,0,2.3,0.2,3.8-1C51.6,45.3,50.1,49,46.7,46.9z"/>
	</g>
</g>
</svg>
