<?xml version="1.0" encoding="utf-8"?>
<!-- Generator: Adobe Illustrator 17.1.0, SVG Export Plug-In . SVG Version: 6.00 Build 0)  -->
<!DOCTYPE svg PUBLIC "-//W3C//DTD SVG 1.1//EN" "http://www.w3.org/Graphics/SVG/1.1/DTD/svg11.dtd">
<svg version="1.1" id="Layer_1" xmlns="http://www.w3.org/2000/svg" xmlns:xlink="http://www.w3.org/1999/xlink" x="0px" y="0px"
	 viewBox="0 0 72 72" enable-background="new 0 0 72 72" xml:space="preserve">
<g id="Layer_1_1_">
	<g>
		<path fill="#FBA919" d="M12.7,17.5c0,0,1.2,4.8,1.4,6.4c0.2,1.6-3.2,5.1-3.2,6.9c0,1.8,0.7,4.9,4.6,6.5c3.9,1.6,4.4,5.6,4.4,8.1
			c0,2.5-1.4,7.2-1.4,7.2s-0.9,11.8,3.9,13.9c4.8,2.1,3.7,2.1,4.8,2.1c1.1,0,8.8,3.2,13.4,1.9c4.6-1.2,5.8-2.6,5.8-2.6
			s4.6,0.4,6-3.7c1.4-4.1,2.3-12.5,1.8-16.4c-0.5-3.9-1.2-9,1.9-10.8c3.2-1.8,6.5-3.9,6-5.6c-0.5-1.8-3.4-4.2-3.4-4.2
			s-0.7-4.4-0.2-5.5c0.5-1.1,3.7-3.7,1.9-5.6c-1.8-1.9-4.9-1.9-4.9-1.9l-4.1,0.4c0,0-6.9-6.2-15.9-5.8C26.6,9,21,14.5,21,14.5
			s-3-1.1-5.6,0C12.7,15.5,12.2,14.5,12.7,17.5z"/>
		<path fill="#E78724" d="M28.8,43.7c0,0-3.5,5.3-6.1,9.1c-0.4,0.6,2.6,0.6,2.6,0.6L28.8,43.7z"/>
		<path fill="#E78724" d="M30.5,32.7c0,0-1.1,2.6-1.6,4c-0.6,1.5-3,2.3-3,2.3s1.2-1.3,1.2-4.6c0-1.4,1.8-1.9,1.8-1.9L30.5,32.7z"/>
		<path fill="#E78724" d="M29.4,34.1c0,0-2.2,2.6-6.2,1.1c-4-1.4-4.4-6.6-4.4-8c0-1.4,7.6,1.4,8.6,2.1
			C28.5,29.9,30.5,32.4,29.4,34.1z"/>
		<path fill="#E78724" d="M14.3,6.7c0,0,3.7-0.7,6.2,1.2c2.5,2,3.2,3.5,3.2,3.5l-4.2,3.3c0,0-2-0.9-2.6-3.6
			C16.2,8.4,16.6,7.2,14.3,6.7z"/>
		<path fill="#E78724" d="M28.3,26.7c-1.6-2.3-4.2-3.2-6.3-3.4c-3.6-0.3-5.3,1-5.3,1s5.9,0.2,7.5,2.5c3.1,4.1,7.7,4.5,8.5,3.6
			c-0.8,0-1.8-0.4-2.8-1.3C29.4,28.4,28.9,27.4,28.3,26.7z"/>
		<path fill="#E78724" d="M18.5,34.7c0,0-6.5-2.2-5.3-4.5c1.2-2.3,0.3-3.5,0.3-3.5s-3.6,2.7-2.7,5.6c0.6,1.8,1.5,3,6.8,5.5
			c2.5,4.7,0.5,13.1,0.6,13.1c0.2,0.1,3.5-1.6,3.3-9.5C21.4,39,21.2,35.7,18.5,34.7z"/>
		<path fill="#E78724" d="M27,10.7c-2.7,1.4-6.5,3.3-6.5,3.3l1.5,0.7c-0.1,0.2-0.2,0.4-0.2,0.4l1.5,0.7c0,0,3.7,2.7,5.9,4.4
			c-0.8-2.3-3-6-3-6S25.6,12.6,27,10.7z"/>
		<path fill="#E78724" d="M36,67.1c-8.4,0-11.2-4.2-11.2-4.2l1.3,3.2c0.5,1.4,5.8,5.7,9.9,5.7"/>
		<path fill="#E78724" d="M25.7,60c0,0,0.8,4.7,3.9,4.7c2.6,0,3.4-4,3.4-4.8L25.7,60z"/>
		<path fill="#E78724" d="M20.6,52.9c0.3-0.8,1.2-3.8,1.5-6.6c0.4-3.3,0.2-8.2,0.2-8.2s-0.8,3.2-1.5,3.7c-0.7,0.5-2.1,4-2.1,4
			s-0.7,5.2-1.1,7C18.7,53,19.5,52.4,20.6,52.9z"/>
		<path fill="#E78724" d="M13.2,32.3c0,0,1.7-0.6,2.3-4.4c0.5-3.8-0.6-7.1-0.6-7.1s0.1,5.2-0.5,6.3c-0.6,1-1.1,1.3-1.9,2.7
			C11.7,31,12.7,31.9,13.2,32.3z"/>
		<path fill="#87CCEE" d="M22.4,14.8"/>
		<path fill="#FDC168" d="M15.2,7.6l-0.4-0.2C13.8,7.4,15.2,7.6,15.2,7.6z"/>
		<path fill="#FBA919" d="M28.4,9.6c0,0-1.6-0.3-2.5-1.5c-0.8-1.2-3.2-3.7-6.9-3.7c-3.7,0-7.4,1-7.4,1l3.2,2c0.3,0,0.9,0,1.9,0
			c4,0.1,4.6,4.1,4.6,4.1l14.2-2"/>
		<path fill="#FFFFFF" d="M29.8,31.6c0,0-1.9,1.9-4.9,1.3C22,32.3,20.2,31,20,28.7c-0.1-2.3,0.6-3.2,0.6-3.2s3.3,1,4.9,2.4
			C27.1,29.3,28.3,31.5,29.8,31.6z"/>
		<path fill="#C9C9C9" d="M27.4,30.9c0,0-1.7,0.8-3.5,0.1c-2.4-0.8-2.6-3.3-2.6-3.3s-1.5,4.4,2.7,5.2c3.4,0.7,5.3-1.3,5.3-1.3
			L27.4,30.9z"/>
		<path fill="#463014" d="M29.4,55.5"/>
		<path fill="#463014" d="M28.6,8.7c-0.2-3.8,2.9-6.8,4-6.9c0.1,0.6-0.1,3.1,1,3.9c0.3-2,1.4-4.3,5.5-5.7c-0.9,2.4-0.1,4.3,0.2,5.2
			C42.2,2.6,44.1,3,44.1,3s-2,3.4-1.2,5.6C37.2,8.2,28.7,9.3,28.6,8.7z"/>
		<path fill="#463014" d="M16.6,14.4c-1.4-1.1-0.3-2.2-0.5-3.5c-0.1-0.7-0.1-1.3-0.3-1.7c-1.2-2-4.2-2.6-4.2-2.6l-1.4-0.3l0.9-1.1
			c0.1-0.1,3.9-3.7,9.7-1.8c4.1,1.3,7.1,5.8,7.2,5.9l-2,1c0,0-2.4-4.2-5.9-5.3c-2.8-0.9-5.4,0-6.5,0.5c1.2,0.5,2.7,1.3,3.7,2.8
			c0.4,0.7,0.5,1.6,0.6,2.4c0.1,1.1,0.2,2.2,1,2.9L16.6,14.4z"/>
		<path fill="#463014" d="M12.9,30.8c0,0,1.7-2.1,2.2-6.2c0.2-1.6-0.2-4.8-0.7-6.1c0.1,3-0.7,6.1-0.7,6.1S13.3,30.2,12.9,30.8z"/>
		<path fill="#463014" d="M22,12.2c0,0-0.5-2.4-2.1-3.6c-2.1-1.7-4.8-0.8-4.8-0.8l-0.4-1.2c0.1,0,3.1-1,5.9,1
			c2.8,1.9,3.1,3.7,3.1,3.9L22,12.2z"/>
		<path fill="#463014" d="M18.3,29.3c0,0-0.9-1.3-0.7-2.7c0.1-0.7,0.4-1.4,1-1.7c1.1-0.5,1.5,0.7,1.5,0.7S18.6,26.1,18.3,29.3z"/>
		<path fill="#463014" d="M29.4,55.5"/>
		<path fill="#463014" d="M28.2,31.3c0,0.1,0.1,0.1,0.1,0.1s-2.8,2.1-5.7,0c-1.5-1.1-1.4-4-0.9-5.2c1.2,0.3,2.3,0.8,3.1,1.4
			c-1.1-1-2.1-1.7-2.1-1.7l-1.2-0.4L19,24.6c0,0.2-0.9,4.3,1.6,7.1c1.1,1.3,6.4,4.1,8.9-0.7L28.2,31.3z"/>
		<path fill="#463014" d="M27.9,31.6c1.6,2.4,5.6,1,5.5-1.5c0,0-2.7,1.5-5-1.2c-1.4-1.6-5.8-5.9-11.7-4.5
			C20.8,25.3,26.2,29,27.9,31.6z"/>
		<g>
			<path fill="#463014" d="M29.4,55.5"/>
		</g>
		<path fill="#463014" d="M16.1,38.3c0.4,0.2,1.7,1.6,1.7,3.7c0,1-0.1,6.3-0.6,9.4c0.8,0.5,1.3,0.6,2.1,1.1c0.4-3.7,0.7-9,0.5-11.2
			c-0.1-2.5-1.5-4.1-2.7-4.8c-0.4-0.2-0.8-0.4-1.2-0.7c-2.1-1.1-4.3-2.3-4.3-4.3c0-1.6,0.6-2.1,1.3-2.6L13,29
			c0.4-0.3,0.9-0.7,1.2-1.4c0.8-1.8,0.9-6.2,0-7.4c-0.5-0.6-1.7-2.5-1.3-3.7c0.1-0.5,0.4-0.8,0.9-1.1c0.5-0.3,1.2-0.4,2.1-0.4
			c1.7,0,3.6,0.5,4.6,0.8c3.5,1.1,7.8,4.4,9,5.3c0,0,0.1,0,0.1,0l0.8,0.5L30,20.9c0-0.1-3.1-5.1-8.7-7c-1.1-0.4-3.2-1-5.3-1
			c-1.2,0-2.3,0.2-3.1,0.6c-1,0.5-1.7,1.3-2,2.4c-0.7,2.6,1.6,5.4,1.7,5.5c0.3,0.5,0.4,3.9-0.2,5.3c-0.1,0.2-0.3,0.4-0.6,0.6
			c-0.1,0.1-0.2,0.2-0.3,0.2c-0.9,0.7-2.2,1.6-2.2,3.9c0,3.1,3.2,4.8,5.7,6.2C15.4,37.9,15.8,38.1,16.1,38.3z"/>
		<g>
			<g>
				<path fill="#463014" d="M16.6,14.4c-1.4-1.1-0.3-2.2-0.5-3.5c-0.1-0.7-0.1-1.3-0.3-1.7c-1.2-2-4.2-2.6-4.2-2.6l-1.4-0.3l0.9-1.1
					c0.1-0.1,3.9-3.7,9.7-1.8c4.1,1.3,7.1,5.8,7.2,5.9l-2,1c0,0-2.4-4.2-5.9-5.3c-2.8-0.9-5.4,0-6.5,0.5c1.2,0.5,2.7,1.3,3.7,2.8
					c0.4,0.7,0.5,1.6,0.6,2.4c0.1,1.1,0.2,2.2,1,2.9L16.6,14.4z"/>
			</g>
			<g>
				<path fill="#463014" d="M16.5,14.6L16.5,14.6c-1.1-0.9-0.9-1.7-0.7-2.5c0.1-0.4,0.2-0.7,0.1-1.1c-0.1-0.7-0.1-1.3-0.3-1.6
					c-1.2-1.9-4.1-2.5-4.1-2.5L9.8,6.5l1.1-1.3c0,0,2.4-2.5,6.5-2.5c1.1,0,2.3,0.2,3.4,0.6c4.2,1.4,7.3,6,7.3,6l0.1,0.2l-2.4,1.1
					l-0.1-0.2c-0.3-0.4-2.5-4.2-5.8-5.3c-0.8-0.3-1.6-0.4-2.5-0.4c-1.6,0-2.8,0.4-3.5,0.7c1.1,0.5,2.5,1.4,3.3,2.7
					c0.5,0.7,0.5,1.6,0.6,2.5c0.1,1.1,0.2,2.1,0.9,2.7l0.3,0.2L16.5,14.6z"/>
			</g>
		</g>
		<g>
			<g>
				<path fill="#463014" d="M22,12.2c0,0-0.5-2.4-2.1-3.6c-2.1-1.7-4.8-0.8-4.8-0.8l-0.4-1.2c0.1,0,3.1-1,5.9,1
					c2.8,1.9,3.1,3.7,3.1,3.9L22,12.2z"/>
			</g>
			<g>
				<path fill="#463014" d="M21.8,12.5l-0.1-0.2c0,0-0.5-2.3-2-3.5c-0.8-0.7-1.8-1-3-1c-0.9,0-1.6,0.2-1.6,0.2L15,8.1l-0.5-1.6
					l0.2-0.1c0.1,0,0.9-0.3,2-0.3c1.5,0,2.9,0.4,4.1,1.3c2.8,2,3.2,3.8,3.2,4l0,0.2L21.8,12.5z M16.8,7.4c1.2,0,2.3,0.4,3.2,1.1
					c1.3,1,1.9,2.8,2.1,3.5l1.4-0.6c-0.1-0.5-0.7-2-3-3.6c-1.1-0.8-2.4-1.2-3.8-1.2c-0.8,0-1.4,0.1-1.7,0.2l0.3,0.8
					C15.5,7.5,16.1,7.4,16.8,7.4z"/>
			</g>
		</g>
		<path fill="#463014" d="M29.5,63.6L29.5,63.6c-0.6,0-1.2-0.2-1.7-0.6c-0.3-0.3-1.4-1.3-1.9-2.6c-0.2-0.5-0.1-0.8,0.1-1.1
			c0.2-0.2,0.6-0.4,1.3-0.4l0.5,0c0.7,0,1.8,0,2.7,0h0.9c0.6,0,1,0.1,1.2,0.4c0.3,0.3,0.2,0.7,0.1,0.9c-0.2,0.4-0.8,1.6-1.8,2.7
			C30.6,63.3,30.1,63.6,29.5,63.6z"/>
		<path fill="#463014" d="M30.1,31.7l-2.2-0.1c0,0,0.6,1,0.9,2.3c0.4,1.4-0.4,3.6-0.4,3.6S31.4,34.1,30.1,31.7z"/>
		<g>
			<path fill="#463014" d="M27.4,69.4c-7.8-0.6-10.6-8-10.6-9.5l2,0l-1,0h1c0,0.7,2.1,7,8.7,7.5L27.4,69.4z"/>
		</g>
		<path fill="#FFFFFF" d="M25.2,56.1c-0.1-0.7-0.1-1.4,0-2c-0.6-0.4-1.7-0.6-2.5-0.9c-0.7-0.4-4,0.4-6.4-2.5c-3-3.7-2.4-5.9-2.4-5.9
			c-0.8,0.9-1.5,0.5-2.7,4.6c-1.2,4,0.6,6.8,3.8,9.7c1.5,1.3,3.7,1.9,5.6,2.1c-0.6-0.6,1.1-0.7,2.2-1.1c-0.1-0.9,0.1-1.9,0.8-2.6
			c0.4-0.4,1-0.7,1.5-0.9c0-0.1,0.1-0.1,0.1-0.2C25.2,56.3,25.2,56.2,25.2,56.1z"/>
		<path fill="#C9C9C9" d="M22.8,60c-0.1-0.2-0.1-0.4-0.2-0.6c-0.1-0.2-0.3-0.9,0-0.1c-0.1-0.2-0.1-0.4-0.2-0.6
			c-5.3,0-9.9-3.6-9-11.2c-0.7-0.9-1.7,1.8-1.7,1.8S9.2,57,16,60c2.3,1,4.3,1.7,4.8,1.4c1,0.2,1.9-0.5,2.2-0.9
			C22.9,60.3,22.9,60.2,22.8,60z"/>
		<path fill="#463014" d="M25.1,55c0-0.6,0.1-1.3,0.4-1.9c0,0,0-0.1,0.1-0.1c-2,0-4.4-0.2-6.4-1c-2.2-0.9-4.9-3.9-5.4-7.4
			c0,0-4.1,3.2-2.9,10c1.1,6.4,6.5,8.5,12.6,8.8c0,0-0.7-1.5-0.5-2.3c-3.5,0.3-7.3-1.1-9.2-4.2c-1.7-2.8-1.2-7.6-0.5-8.3
			C15,54,21.2,55.1,25.1,55z"/>
		<path fill="#463014" d="M36,63.4"/>
		<path fill="#463014" d="M25.7,51.2c-1.1,3.2-3.3,5.8-3.3,5.8s3.1-0.1,3.3-0.7c0.1-0.4,2.8-6.6,3.8-13.9
			C28.5,44,25.8,50.9,25.7,51.2z"/>
		<path fill="#E78724" d="M43.2,43.7c0,0,3.5,5.3,6.1,9.1c0.4,0.6-2.6,0.6-2.6,0.6L43.2,43.7z"/>
		<path fill="#E78724" d="M41.5,32.7c0,0,1.1,2.6,1.6,4c0.6,1.5,3,2.3,3,2.3s-1.2-1.3-1.2-4.6c0-1.4-1.8-1.9-1.8-1.9L41.5,32.7z"/>
		<path fill="#E78724" d="M42.6,34.1c0,0,2.2,2.6,6.2,1.1s4.4-6.6,4.4-8c0-1.4-7.6,1.4-8.6,2.1S41.5,32.4,42.6,34.1z"/>
		<path fill="#E78724" d="M57.7,6.7c0,0-3.7-0.7-6.2,1.2c-2.5,2-3.2,3.5-3.2,3.5l4.2,3.3c0,0,2-0.9,2.6-3.6
			C55.8,8.4,55.4,7.2,57.7,6.7z"/>
		<path fill="#E78724" d="M43.7,26.7c1.6-2.3,4.2-3.2,6.3-3.4c3.6-0.3,5.3,1,5.3,1s-5.9,0.2-7.5,2.5c-3.1,4.1-7.7,4.5-8.5,3.6
			c0.8,0,1.8-0.4,2.8-1.3C42.6,28.4,43.1,27.4,43.7,26.7z"/>
		<path fill="#E78724" d="M53.5,34.7c0,0,6.5-2.2,5.3-4.5c-1.2-2.3-0.3-3.5-0.3-3.5s3.6,2.7,2.7,5.6c-0.6,1.8-1.5,3-6.8,5.5
			C52,42.5,54,50.9,53.9,50.9c-0.2,0.1-3.5-1.6-3.3-9.5C50.6,39,50.8,35.7,53.5,34.7z"/>
		<path fill="#E78724" d="M45,10.7c2.7,1.4,6.5,3.3,6.5,3.3L50,14.8c0.1,0.2,0.2,0.4,0.2,0.4l-1.5,0.7c0,0-3.7,2.7-5.9,4.4
			c0.8-2.3,3-6,3-6S46.4,12.6,45,10.7z"/>
		<path fill="#E78724" d="M36,67.1c8.4,0,11.2-4.2,11.2-4.2L45.9,66c-0.5,1.4-5.8,5.7-9.9,5.7"/>
		<path fill="#E78724" d="M46.3,60c0,0-0.8,4.7-3.9,4.7c-2.6,0-3.4-4-3.4-4.8L46.3,60z"/>
		<path fill="#E78724" d="M51.4,52.9c-0.3-0.8-1.2-3.8-1.5-6.6c-0.4-3.3-0.2-8.2-0.2-8.2s0.8,3.2,1.5,3.7c0.7,0.5,2.1,4,2.1,4
			s0.7,5.2,1.1,7C53.3,53,52.5,52.4,51.4,52.9z"/>
		<path fill="#E78724" d="M58.8,32.3c0,0-1.7-0.6-2.3-4.4c-0.5-3.8,0.6-7.1,0.6-7.1S57.1,26,57.7,27c0.6,1,1.1,1.3,1.9,2.7
			C60.3,31,59.3,31.9,58.8,32.3z"/>
		<path fill="#87CCEE" d="M49.6,14.8"/>
		<path fill="#FDC168" d="M56.8,7.6l0.4-0.2C58.2,7.4,56.8,7.6,56.8,7.6z"/>
		<path fill="#FBA919" d="M43.6,9.6c0,0,1.6-0.3,2.5-1.5c0.8-1.2,3.2-3.7,6.9-3.7c3.7,0,7.4,1,7.4,1l-3.2,2c-0.3,0-0.9,0-1.9,0
			c-4,0.1-4.6,4.1-4.6,4.1l-14.2-2"/>
		<path fill="#FFFFFF" d="M42.2,31.6c0,0,1.9,1.9,4.9,1.3c2.9-0.6,4.7-1.9,4.9-4.2c0.1-2.3-0.6-3.2-0.6-3.2s-3.3,1-4.9,2.4
			C44.9,29.3,43.7,31.5,42.2,31.6z"/>
		<path fill="#C9C9C9" d="M44.6,30.9c0,0,1.7,0.8,3.5,0.1c2.4-0.8,2.6-3.3,2.6-3.3s1.5,4.4-2.7,5.2c-3.4,0.7-5.3-1.3-5.3-1.3
			L44.6,30.9z"/>
		<path fill="#463014" d="M42.6,55.5"/>
		<path fill="#463014" d="M55.4,14.4c1.4-1.1,0.3-2.2,0.5-3.5c0.1-0.7,0.1-1.3,0.3-1.7c1.2-2,4.2-2.6,4.2-2.6l1.4-0.3l-0.9-1.1
			c-0.1-0.1-3.9-3.7-9.7-1.8c-4.1,1.3-7.1,5.8-7.2,5.9l2,1c0,0,2.4-4.2,5.9-5.3c2.8-0.9,5.4,0,6.5,0.5c-1.2,0.5-2.7,1.3-3.7,2.8
			c-0.4,0.7-0.5,1.6-0.6,2.4c-0.1,1.1-0.2,2.2-1,2.9L55.4,14.4z"/>
		<path fill="#463014" d="M59.1,30.8c0,0-1.7-2.1-2.2-6.2c-0.2-1.6,0.2-4.8,0.7-6.1c-0.1,3,0.7,6.1,0.7,6.1S58.8,30.2,59.1,30.8z"/>
		<path fill="#463014" d="M50,12.2c0,0,0.5-2.4,2.1-3.6c2.1-1.7,4.8-0.8,4.8-0.8l0.4-1.2c-0.1,0-3.1-1-5.9,1
			c-2.8,1.9-3.1,3.7-3.1,3.9L50,12.2z"/>
		<path fill="#463014" d="M53.7,29.3c0,0,0.9-1.3,0.7-2.7c-0.1-0.7-0.4-1.4-1-1.7c-1.1-0.5-1.5,0.7-1.5,0.7S53.4,26.1,53.7,29.3z"/>
		<path fill="#463014" d="M42.6,55.5"/>
		<path fill="#463014" d="M43.8,31.3c0,0.1-0.1,0.1-0.1,0.1s2.8,2.1,5.7,0c1.5-1.1,1.4-4,0.9-5.2c-1.2,0.3-2.3,0.8-3.1,1.4
			c1.1-1,2.1-1.7,2.1-1.7l1.2-0.4l2.4-0.8c0,0.2,0.9,4.3-1.6,7.1c-1.1,1.3-6.4,4.1-8.9-0.7L43.8,31.3z"/>
		<path fill="#463014" d="M44.1,31.6c-1.6,2.4-5.6,1-5.5-1.5c0,0,2.7,1.5,5-1.2c1.4-1.6,5.8-5.9,11.7-4.5
			C51.2,25.3,45.8,29,44.1,31.6z"/>
		<g>
			<path fill="#463014" d="M42.6,55.5"/>
		</g>
		<path fill="#463014" d="M55.9,38.3c-0.4,0.2-1.7,1.6-1.7,3.7c0,1,0.1,6.3,0.6,9.4c-0.8,0.5-1.3,0.6-2.1,1.1
			c-0.4-3.7-0.7-9-0.5-11.2c0.1-2.5,1.5-4.1,2.7-4.8c0.4-0.2,0.8-0.4,1.2-0.7c2.1-1.1,4.3-2.3,4.3-4.3c0-1.6-0.6-2.1-1.3-2.6L59,29
			c-0.4-0.3-0.9-0.7-1.2-1.4c-0.8-1.8-0.9-6.2,0-7.4c0.5-0.6,1.7-2.5,1.3-3.7c-0.1-0.5-0.4-0.8-0.9-1.1C57.6,15.1,56.9,15,56,15
			c-1.7,0-3.6,0.5-4.6,0.8c-3.5,1.1-7.8,4.4-9,5.3c0,0-0.1,0-0.1,0l-0.8,0.5l0.5-0.8c0-0.1,3.1-5.1,8.7-7c1.1-0.4,3.2-1,5.3-1
			c1.2,0,2.3,0.2,3.1,0.6c1,0.5,1.7,1.3,2,2.4c0.7,2.6-1.6,5.4-1.7,5.5c-0.3,0.5-0.4,3.9,0.2,5.3c0.1,0.2,0.3,0.4,0.6,0.6
			c0.1,0.1,0.2,0.2,0.3,0.2c0.9,0.7,2.2,1.6,2.2,3.9c0,3.1-3.2,4.8-5.7,6.2C56.6,37.9,56.2,38.1,55.9,38.3z"/>
		<path fill="#463014" d="M52.1,14c-0.5-0.9-1.8-2.5-4.7-3.9C44.1,8.5,40.2,7.6,36,7.6v0c0,0,0,0,0,0c0,0,0,0,0,0v0
			c-4.2,0-8.1,0.8-11.4,2.4c-3,1.4-4.2,3.1-4.7,3.9l-0.2,0.3l2.5,0.6l0.1-0.1l0-0.1c0-0.2,0.4-1.1,3.2-2.5c3-1.5,6.5-2.2,10.5-2.2
			c3.9,0,7.5,0.7,10.5,2.2c2.8,1.4,3.2,2.3,3.2,2.5l0,0.1l0.1,0.1l2.5-0.6L52.1,14z"/>
		<g>
			<g>
				<path fill="#463014" d="M55.4,14.4c1.4-1.1,0.3-2.2,0.5-3.5c0.1-0.7,0.1-1.3,0.3-1.7c1.2-2,4.2-2.6,4.2-2.6l1.4-0.3l-0.9-1.1
					c-0.1-0.1-3.9-3.7-9.7-1.8c-4.1,1.3-7.1,5.8-7.2,5.9l2,1c0,0,2.4-4.2,5.9-5.3c2.8-0.9,5.4,0,6.5,0.5c-1.2,0.5-2.7,1.3-3.7,2.8
					c-0.4,0.7-0.5,1.6-0.6,2.4c-0.1,1.1-0.2,2.2-1,2.9L55.4,14.4z"/>
			</g>
			<g>
				<path fill="#463014" d="M52.8,13.7l0.3-0.2c0.8-0.6,0.8-1.6,0.9-2.7c0.1-0.9,0.1-1.8,0.6-2.5c0.9-1.4,2.2-2.2,3.3-2.7
					c-0.7-0.3-1.9-0.7-3.5-0.7c-0.9,0-1.7,0.1-2.5,0.4c-3.2,1-5.5,4.8-5.8,5.3l-0.1,0.2l-2.4-1.1l0.1-0.2c0,0,3.1-4.7,7.3-6
					c1.1-0.4,2.3-0.6,3.4-0.6c4.1,0,6.5,2.4,6.5,2.5l1.1,1.3l-1.7,0.3c0,0-2.9,0.6-4.1,2.5c-0.2,0.3-0.2,0.9-0.3,1.6
					c0,0.4,0,0.8,0.1,1.1c0.2,0.8,0.4,1.6-0.7,2.5l-0.1,0.1L52.8,13.7z"/>
			</g>
		</g>
		<g>
			<g>
				<path fill="#463014" d="M50,12.2c0,0,0.5-2.4,2.1-3.6c2.1-1.7,4.8-0.8,4.8-0.8l0.4-1.2c-0.1,0-3.1-1-5.9,1
					c-2.8,1.9-3.1,3.7-3.1,3.9L50,12.2z"/>
			</g>
			<g>
				<path fill="#463014" d="M48,11.7l0-0.2c0-0.2,0.4-2.1,3.2-4c1.2-0.8,2.6-1.3,4.1-1.3c1.1,0,1.9,0.2,2,0.3l0.2,0.1L57,8.1L56.8,8
					c-0.1,0-0.7-0.2-1.6-0.2c-1.1,0-2.1,0.3-3,1c-1.5,1.2-2,3.5-2,3.5l-0.1,0.2L48,11.7z M56.8,7.6L57,6.8c-0.3-0.1-0.9-0.2-1.7-0.2
					c-1.4,0-2.7,0.4-3.8,1.2c-2.3,1.6-2.9,3.1-3,3.6l1.4,0.6c0.2-0.7,0.8-2.5,2.1-3.5c0.9-0.7,2-1.1,3.2-1.1
					C55.9,7.4,56.5,7.5,56.8,7.6z"/>
			</g>
		</g>
		<path fill="#463014" d="M41,62.9c-1.1-1.1-1.7-2.4-1.8-2.7c-0.1-0.2-0.2-0.6,0.1-0.9c0.2-0.2,0.7-0.4,1.2-0.4h0.9c0.9,0,2,0,2.7,0
			l0.5,0c0.8,0,1.2,0.2,1.3,0.4c0.3,0.3,0.3,0.6,0.1,1.1c-0.5,1.3-1.6,2.3-1.9,2.6c-0.4,0.4-1,0.6-1.7,0.6l0,0
			C41.9,63.6,41.4,63.3,41,62.9z"/>
		<path fill="#463014" d="M41.9,31.7l2.2-0.1c0,0-0.6,1-0.9,2.3c-0.4,1.4,0.4,3.6,0.4,3.6S40.6,34.1,41.9,31.7z"/>
		<path fill="#E78724" d="M36,23.9c-1.4,0-3.2,0-4.6-1c0,0,1.8,3.1,4.6,3.1l0-0.4l0,0.4c2.8,0,4.6-3.1,4.6-3.1
			C39.2,23.8,37.4,23.9,36,23.9z"/>
		<path fill="#463014" d="M39.8,23.9C38.4,24.7,37.2,25,36,25c-1.2,0-2.4-0.3-3.8-1.2c0,0,2,2.5,3.8,2.5v0c0,0,0,0,0,0c0,0,0,0,0,0
			v0C37.8,26.4,39.8,23.9,39.8,23.9z"/>
		<g>
			<path fill="#463014" d="M44.6,69.4l-0.2-2c6.6-0.5,8.7-6.8,8.7-7.5h2C55.2,61.4,52.4,68.8,44.6,69.4z"/>
		</g>
		<path fill="#FFFFFF" d="M46.8,56.1c0.1-0.7,0.1-1.4,0-2c0.6-0.4,1.7-0.6,2.5-0.9c0.7-0.4,4,0.4,6.4-2.5c3-3.7,2.4-5.9,2.4-5.9
			c0.8,0.9,1.5,0.5,2.7,4.6c1.2,4-0.6,6.8-3.8,9.7c-1.5,1.3-3.7,1.9-5.6,2.1c0.6-0.6-1.1-0.7-2.2-1.1c0.1-0.9-0.1-1.9-0.8-2.6
			c-0.4-0.4-1-0.7-1.5-0.9c0-0.1-0.1-0.1-0.1-0.2C46.8,56.3,46.8,56.2,46.8,56.1z"/>
		<path fill="#C9C9C9" d="M49.2,60c0.1-0.2,0.1-0.4,0.2-0.6c0.1-0.2,0.3-0.9,0-0.1c0.1-0.2,0.1-0.4,0.2-0.6c5.3,0,9.9-3.6,9-11.2
			c0.7-0.9,1.7,1.8,1.7,1.8S62.8,57,56,60c-2.3,1-4.3,1.7-4.8,1.4c-1,0.2-1.9-0.5-2.2-0.9C49.1,60.3,49.1,60.2,49.2,60z"/>
		<path fill="#463014" d="M46.9,55c0-0.6-0.1-1.3-0.4-1.9c0,0,0-0.1-0.1-0.1c2,0,4.4-0.2,6.4-1c2.2-0.9,4.9-3.9,5.4-7.4
			c0,0,4.1,3.2,2.9,10c-1.1,6.4-6.5,8.5-12.6,8.8c0,0,0.7-1.5,0.5-2.3c3.5,0.3,7.3-1.1,9.2-4.2c1.7-2.8,1.2-7.6,0.5-8.3
			C57,54,50.8,55.1,46.9,55z"/>
		<g>
			<path fill="#463014" d="M36,63.4"/>
			<path fill="#463014" d="M49.4,56.6c-0.7-0.8-2.1-1.7-5.2-1.7c0,0-5.9,0-8.2,0l0,0c0,0,0,0,0,0c0,0,0,0,0,0l0,0
				c-2.4,0-8.2,0-8.2,0c-3.1,0-4.4,0.9-5.2,1.7c-1.1,1.1-1.2,2.7-0.5,4.7c2,5.3,4.7,10.7,13.9,10.7v0c0,0,0,0,0,0c0,0,0,0,0,0v0
				c9.2,0,11.9-5.4,13.9-10.7C50.6,59.4,50.5,57.8,49.4,56.6z M48,61c-0.9,2.7-3.4,9.1-12,9.1c-8.5,0-11-6.5-12-9.1
				c-0.5-1.5-0.5-2.6,0.1-3.3c0.4-0.5,1.3-1,3.5-1l2.2,0c1.6,0,3.7,0,6.1,0c2.4,0,4.5,0,6.1,0l2.2,0c2.1,0,3.1,0.6,3.5,1
				C48.4,58.4,48.5,59.5,48,61z"/>
		</g>
		<path fill="#463014" d="M46.3,51.2c1.1,3.2,3.3,5.8,3.3,5.8s-3.1-0.1-3.3-0.7c-0.1-0.4-2.8-6.6-3.8-13.9
			C43.5,44,46.2,50.9,46.3,51.2z"/>
	</g>
</g>
</svg>
