<?xml version="1.0" encoding="utf-8"?>
<!-- Generator: Adobe Illustrator 17.1.0, SVG Export Plug-In . SVG Version: 6.00 Build 0)  -->
<!DOCTYPE svg PUBLIC "-//W3C//DTD SVG 1.1//EN" "http://www.w3.org/Graphics/SVG/1.1/DTD/svg11.dtd">
<svg version="1.1" id="Layer_1" xmlns="http://www.w3.org/2000/svg" xmlns:xlink="http://www.w3.org/1999/xlink" x="0px" y="0px"
	 viewBox="0 0 72 72" enable-background="new 0 0 72 72" xml:space="preserve">
<path id="Shape" fill="#E44F26" d="M10,64.8L4.3,0h63.5L62,64.8L36,72L10,64.8z"/>
<path id="Shape_1_" fill="#F1662A" d="M36,66.5l21-5.8l5-55.4H36V66.5z"/>
<path id="Shape_2_" fill="#EBEBEB" d="M36,29.3H25.5l-0.7-8.1H36v-7.9h0H16.1l0.2,2.1l2,21.9H36V29.3z"/>
<path id="Shape_3_" fill="#EBEBEB" d="M36,50L36,50l-8.9-2.4l-0.6-6.3h-4.3h-3.7l1.1,12.5L36,58.3h0L36,50L36,50z"/>
<path id="Shape_8_" fill="#FFFFFF" d="M36,29.3v7.9h9.8l-0.9,10.3L36,50v8.3l16.3-4.5l0.1-1.3l1.9-20.9l0.2-2.1h-2.1L36,29.3
	L36,29.3z"/>
<path id="Shape_9_" fill="#FFFFFF" d="M36,13.3v4.9v3v0h19.2h0l0.1-1.8l0.4-4l0.2-2.1L36,13.3L36,13.3z"/>
</svg>
