<?xml version="1.0" encoding="utf-8"?>
<!-- Generator: Adobe Illustrator 16.0.0, SVG Export Plug-In . SVG Version: 6.00 Build 0)  -->
<!DOCTYPE svg PUBLIC "-//W3C//DTD SVG 1.1//EN" "http://www.w3.org/Graphics/SVG/1.1/DTD/svg11.dtd">
<svg version="1.1" id="Layer_1" xmlns="http://www.w3.org/2000/svg" xmlns:xlink="http://www.w3.org/1999/xlink" x="0px" y="0px"
	 width="140px" height="140px" xml:space="preserve">
<style type="text/css">
<![CDATA[
	.st0{fill-rule:evenodd;clip-rule:evenodd;fill:#46483E;}
	.st1{fill-rule:evenodd;clip-rule:evenodd;fill:#8CC84B;}
	.st2{opacity:0.5;fill-rule:evenodd;clip-rule:evenodd;fill:#A8A8A8;}
	.st3{opacity:0.5;fill-rule:evenodd;clip-rule:evenodd;fill:#464646;}
]]>
</style>
<path class="st0" d="M104.01,63.97c1.2-0.69,1.93-1.97,1.93-3.36v-9c0-1.38-0.74-2.66-1.93-3.36L72.05,29.69
	c-1.2-0.7-2.69-0.7-3.89-0.01L36,48.25c-1.2,0.69-1.94,1.98-1.94,3.36v37.13c0,1.39,0.75,2.68,1.96,3.38l31.96,18.21
	c1.18,0.67,2.62,0.68,3.81,0.02L91.11,99.6c0.61-0.34,1-0.98,1-1.68c0.01-0.7-0.37-1.35-0.97-1.7L58.78,77.65
	c-0.6-0.35-0.98-0.99-0.98-1.69V64.33c0-0.69,0.37-1.33,0.97-1.68l10.07-5.8c0.6-0.35,1.34-0.35,1.94,0l10.08,5.8
	c0.6,0.35,0.97,0.99,0.97,1.68v9.16c0,0.69,0.37,1.33,0.97,1.68c0.6,0.35,1.34,0.34,1.94-0.01L104.01,63.97z"/>
<path class="st1" d="M69.63,62.23c0.23-0.13,0.51-0.13,0.75,0l6.17,3.56c0.23,0.14,0.37,0.38,0.37,0.64v7.13
	c0,0.26-0.14,0.51-0.37,0.65l-6.17,3.56c-0.23,0.13-0.51,0.13-0.75,0l-6.17-3.56c-0.23-0.14-0.37-0.38-0.37-0.65v-7.13
	c0-0.27,0.14-0.51,0.37-0.64L69.63,62.23z"/>
</svg>
