<?xml version="1.0" encoding="utf-8"?>
<!-- Generator: Adobe Illustrator 17.1.0, SVG Export Plug-In . SVG Version: 6.00 Build 0)  -->
<!DOCTYPE svg PUBLIC "-//W3C//DTD SVG 1.1//EN" "http://www.w3.org/Graphics/SVG/1.1/DTD/svg11.dtd">
<svg version="1.1" id="Layer_1" xmlns="http://www.w3.org/2000/svg" xmlns:xlink="http://www.w3.org/1999/xlink" x="0px" y="0px"
	 viewBox="0 0 72 72" enable-background="new 0 0 72 72" xml:space="preserve">
<g>
	<g id="Layer_2_1_">
		<g>
			
				<linearGradient id="SVGID_1_" gradientUnits="userSpaceOnUse" x1="17.4971" y1="75.0974" x2="45.0972" y2="16.7773" gradientTransform="matrix(1 0 0 -1 0 72)">
				<stop  offset="0" style="stop-color:#A0CBFF"/>
				<stop  offset="0.3941" style="stop-color:#A0CBFE"/>
				<stop  offset="0.583" style="stop-color:#8EC2FC"/>
				<stop  offset="0.7838" style="stop-color:#83BCFB"/>
				<stop  offset="1" style="stop-color:#7FBAFB"/>
			</linearGradient>
			<rect y="0.6" fill="url(#SVGID_1_)" width="72" height="70.8"/>
		</g>
	</g>
	<g id="Layer_2">
		<g>
			
				<linearGradient id="SVGID_2_" gradientUnits="userSpaceOnUse" x1="27.2942" y1="64.9309" x2="42.8942" y2="13.0907" gradientTransform="matrix(1 0 0 -1 0 72)">
				<stop  offset="0" style="stop-color:#090058"/>
				<stop  offset="1" style="stop-color:#070033"/>
			</linearGradient>
			<rect x="5.7" y="6.2" fill="url(#SVGID_2_)" width="60.5" height="59.5"/>
		</g>
	</g>
	<g id="Layer_4">
		<g>
			
				<linearGradient id="SVGID_3_" gradientUnits="userSpaceOnUse" x1="8.9127" y1="71.9947" x2="36.5127" y2="13.6747" gradientTransform="matrix(1 0 0 -1 0 72)">
				<stop  offset="0" style="stop-color:#A0CBFF"/>
				<stop  offset="0.3941" style="stop-color:#A0CBFE"/>
				<stop  offset="0.583" style="stop-color:#8EC2FC"/>
				<stop  offset="0.7838" style="stop-color:#83BCFB"/>
				<stop  offset="1" style="stop-color:#7FBAFB"/>
			</linearGradient>
			<path fill="url(#SVGID_3_)" d="M17.4,20.6c0,0,4.6-0.1,8.3-0.1c3.8,0,6.5,0.9,8.3,2.5c1.7,1.5,2.9,4,2.9,6.9S36,35,34.4,36.6
				c-2.1,2.1-4.5,3.4-8.7,3.6c-1.2,0-2.2,0.1-2.2,0.1v9.3h-6.1L17.4,20.6L17.4,20.6z M23.5,35.1c0.7,0.1,1.1,0,2.1,0
				c3.3,0,5.3-2,5.3-5c0-2.7-1.7-4.9-4.8-5c-1.2,0-2.5,0-2.5,0V35.1z"/>
			<g>
				
					<linearGradient id="SVGID_4_" gradientUnits="userSpaceOnUse" x1="24.6339" y1="79.6093" x2="52.3429" y2="21.0589" gradientTransform="matrix(1 0 0 -1 0 72)">
					<stop  offset="0" style="stop-color:#A0CBFF"/>
					<stop  offset="0.3941" style="stop-color:#A0CBFE"/>
					<stop  offset="0.583" style="stop-color:#8EC2FC"/>
					<stop  offset="0.7838" style="stop-color:#83BCFB"/>
					<stop  offset="1" style="stop-color:#7FBAFB"/>
				</linearGradient>
				<path fill="url(#SVGID_4_)" d="M39.2,43.1c1.2,0.8,4.1,1.9,6.1,1.9c2,0,2.8-0.7,2.8-1.8c0-1.1-0.7-2.3-3.2-3.1
					c-4.4-1.5-6.1-3.3-6.1-5.8c0-4.1,3.4-7.1,8.7-7.1c2.5,0,4.5,0.8,5.8,1.5v4.9c-1-0.5-3.7-1.7-5.6-1.7c-1.6,0-2.5,0.7-2.5,1.8
					c0,1,0.8,1.6,3.5,2.5c4.1,1.4,5.8,3.5,5.8,6.7c0,4-3.1,7.2-9.3,7c-2.1-0.1-4.5-0.9-6.1-1.8L39.2,43.1L39.2,43.1z"/>
			</g>
		</g>
	</g>
</g>
</svg>
