<?xml version="1.0" encoding="utf-8"?>
<!-- Generator: Adobe Illustrator 17.1.0, SVG Export Plug-In . SVG Version: 6.00 Build 0)  -->
<!DOCTYPE svg PUBLIC "-//W3C//DTD SVG 1.1//EN" "http://www.w3.org/Graphics/SVG/1.1/DTD/svg11.dtd">
<svg version="1.1" id="Layer_1" xmlns="http://www.w3.org/2000/svg" xmlns:xlink="http://www.w3.org/1999/xlink" x="0px" y="0px"
	 viewBox="0 0 180 180" enable-background="new 0 0 180 180" xml:space="preserve">
<g>
	<path fill="#00AEEF" d="M13.2,90c0,30.5,17.6,56.8,43.4,69.1L19.9,58.8c-4.3,9.4-6.8,20.1-6.8,31.2H13.2z M141.8,86.1
		c0-9.5-3.4-16.1-6.3-21.2c-3.9-6.3-7.5-11.7-7.5-18c0-7.1,5.3-13.6,12.9-13.6c0.3,0,0.6,0,1.1,0.1c-13.8-12.5-32.1-20.3-52-20.2
		c-26.8,0-50.4,13.8-64.1,34.7c1.8,0,3.6,0,5,0.1c8,0,20.5-1,20.5-1c4.1-0.2,4.8,5.9,0.6,6.4c0,0-4.2,0.5-8.8,0.7l28,83.2L87.9,87
		l-12-32.8c-4.1-0.2-8.1-0.7-8.1-0.7c-4.1-0.2-3.7-6.6,0.5-6.3c0,0,12.6,0.8,20.1,1c8,0,20.5-1,20.5-1c4.1-0.2,4.8,5.9,0.6,6.3
		c0,0-4.2,0.5-8.8,0.7l27.7,82.5l7.7-25.6C139.3,100.3,141.7,92.8,141.8,86.1L141.8,86.1z M91.3,96.7l-23,66.9
		c6.9,2,14.3,3.1,21.8,3.1c8.9,0,17.5-1.5,25.5-4.4c-0.2-0.3-0.4-0.7-0.5-1.1L91.3,96.7z M157.4,53.1c0.3,2.5,0.6,5,0.6,7.9
		c0,7.8-1.5,16.5-5.8,27.5l-23.5,67.8c22.8-13.3,38.2-38,38.2-66.4C166.8,76.6,163.3,64,157.4,53.1L157.4,53.1z M90,0.5
		C40.6,0.5,0.5,40.6,0.5,90c0,49.2,40.3,89.5,89.5,89.5s89.5-40.1,89.5-89.5C179.5,40.8,139.2,0.5,90,0.5z M90,175.4
		c-47.1,0-85.4-38.3-85.4-85.4C4.6,43,43,4.7,90,4.7s85.4,38.3,85.3,85.4C175.4,137,137,175.3,90,175.4z"/>
</g>
</svg>
